<svg width="1240" height="842" viewBox="0 0 1240 842" fill="none" xmlns="http://www.w3.org/2000/svg">
  <path fill-rule="evenodd" clip-rule="evenodd" d="M169.665 618.976C151.587 559.31 -3.54054 517.591 1.00687 430.645C8.65113 284.489 214.809 339.176 305.843 277.015C391.875 218.27 410.615 61.726 512.239 20.002C620.635 -24.5031 738.3 11.0532 882.739 72.002C1025.27 132.144 1282.68 -7.9981 1232.74 198.502C1182.8 405.002 1006.87 406.263 927.606 474.446C860.213 532.414 929.479 677.36 898.294 741.212C833.014 874.874 680.401 701.46 550.681 738.499C418.782 776.16 362.437 878.213 250.108 827.949C165.436 790.06 189.03 682.887 169.665 618.976Z" fill="#4FEB9D" fill-opacity="0.2" />
</svg>