<svg width="192" height="138" fill="none" xmlns="http://www.w3.org/2000/svg"><ellipse cx="5.683" cy="5.57" rx="4.829" ry="5.07" fill="#4FEB9D"/><ellipse cx="5.683" cy="90.144" rx="4.829" ry="5.07" fill="#4FEB9D"/><ellipse cx="77.906" cy="5.57" rx="4.829" ry="5.07" fill="#4FEB9D"/><ellipse cx="77.906" cy="90.144" rx="4.829" ry="5.07" fill="#4FEB9D"/><ellipse cx="150.129" cy="5.57" rx="4.829" ry="5.07" fill="#4FEB9D"/><ellipse cx="150.129" cy="90.144" rx="4.829" ry="5.07" fill="#4FEB9D"/><ellipse cx="5.683" cy="47.857" rx="4.829" ry="5.07" fill="#4FEB9D"/><ellipse cx="5.683" cy="132.431" rx="4.829" ry="5.07" fill="#4FEB9D"/><ellipse cx="77.906" cy="47.857" rx="4.829" ry="5.07" fill="#4FEB9D"/><ellipse cx="77.906" cy="132.431" rx="4.829" ry="5.07" fill="#4FEB9D"/><ellipse cx="150.129" cy="47.857" rx="4.829" ry="5.07" fill="#4FEB9D"/><ellipse cx="150.129" cy="132.431" rx="4.829" ry="5.07" fill="#4FEB9D"/><ellipse cx="41.795" cy="5.57" rx="4.829" ry="5.07" fill="#4FEB9D"/><ellipse cx="41.795" cy="90.144" rx="4.829" ry="5.07" fill="#4FEB9D"/><ellipse cx="114.018" cy="5.57" rx="4.829" ry="5.07" fill="#4FEB9D"/><ellipse cx="114.018" cy="90.144" rx="4.829" ry="5.07" fill="#4FEB9D"/><ellipse cx="186.241" cy="5.57" rx="4.829" ry="5.07" fill="#4FEB9D"/><ellipse cx="186.241" cy="90.144" rx="4.829" ry="5.07" fill="#4FEB9D"/><ellipse cx="41.795" cy="47.857" rx="4.829" ry="5.07" fill="#4FEB9D"/><ellipse cx="41.795" cy="132.431" rx="4.829" ry="5.07" fill="#4FEB9D"/><ellipse cx="114.018" cy="47.857" rx="4.829" ry="5.07" fill="#4FEB9D"/><ellipse cx="114.018" cy="132.431" rx="4.829" ry="5.07" fill="#4FEB9D"/><ellipse cx="186.241" cy="47.857" rx="4.829" ry="5.07" fill="#4FEB9D"/><ellipse cx="186.241" cy="132.431" rx="4.829" ry="5.07" fill="#4FEB9D"/></svg>