<svg  viewBox="0 0 128 105" fill="none" xmlns="http://www.w3.org/2000/svg">
<path d="M123.366 30.8595C123.366 32.0241 124.204 32.8974 125.322 32.8974C126.44 32.8974 127.279 32.0241 127.279 30.8595C127.279 29.695 126.44 28.8217 125.322 28.8217C124.204 28.8217 123.366 29.7921 123.366 30.8595Z" fill="white" fill-opacity="0.6"/>
<path d="M107.945 30.8595C107.945 32.0241 108.783 32.8974 109.901 32.8974C111.019 32.8974 111.858 32.0241 111.858 30.8595C111.858 29.695 111.019 28.8217 109.901 28.8217C108.877 28.8217 107.945 29.7921 107.945 30.8595Z" fill="white" fill-opacity="0.6"/>
<path d="M92.5243 30.8595C92.5243 32.0241 93.3628 32.8974 94.4807 32.8974C95.5987 32.8974 96.4371 32.0241 96.4371 30.8595C96.4371 29.695 95.5987 28.8217 94.4807 28.8217C93.3628 28.8217 92.5243 29.7921 92.5243 30.8595Z" fill="white" fill-opacity="0.6"/>
<path d="M77.1036 30.8595C77.1036 32.0241 77.942 32.8974 79.06 32.8974C80.178 32.8974 81.0164 32.0241 81.0164 30.8595C81.0164 29.695 80.178 28.8217 79.06 28.8217C77.942 28.8217 77.1036 29.7921 77.1036 30.8595Z" fill="white" fill-opacity="0.6"/>
<path d="M61.6829 30.8595C61.6829 32.0241 62.5213 32.8974 63.6393 32.8974C64.7572 32.8974 65.5957 32.0241 65.5957 30.8595C65.5957 29.695 64.7572 28.8217 63.6393 28.8217C62.6145 28.8217 61.6829 29.7921 61.6829 30.8595Z" fill="white" fill-opacity="0.6"/>
<path d="M46.2622 30.8595C46.2622 32.0241 47.1006 32.8974 48.2186 32.8974C49.3365 32.8974 50.175 32.0241 50.175 30.8595C50.175 29.695 49.3365 28.8217 48.2186 28.8217C47.1006 28.8217 46.2622 29.7921 46.2622 30.8595Z" fill="white" fill-opacity="0.6"/>
<path d="M30.8414 30.8595C30.8414 32.0241 31.6799 32.8974 32.7979 32.8974C33.9158 32.8974 34.7543 32.0241 34.7543 30.8595C34.7543 29.695 33.9158 28.8217 32.7979 28.8217C31.6799 28.8217 30.8414 29.7921 30.8414 30.8595Z" fill="white" fill-opacity="0.6"/>
<path d="M15.4207 30.8595C15.4207 32.0241 16.2592 32.8974 17.3771 32.8974C18.4951 32.8974 19.3336 32.0241 19.3336 30.8595C19.3336 29.695 18.4951 28.8217 17.3771 28.8217C16.2592 28.8217 15.4207 29.7921 15.4207 30.8595Z" fill="white" fill-opacity="0.6"/>
<path d="M2.22265e-05 30.8595C2.22265e-05 32.0241 0.838477 32.8974 1.95643 32.8974C3.07438 32.8974 3.91285 32.0241 3.91285 30.8595C3.91285 29.695 3.07438 28.8217 1.95643 28.8217C0.93164 28.8217 2.22265e-05 29.7921 2.22265e-05 30.8595Z" fill="white" fill-opacity="0.6"/>
<path d="M123.366 45.3187C123.366 46.4832 124.204 47.3565 125.322 47.3565C126.44 47.3565 127.279 46.4832 127.279 45.3187C127.279 44.1541 126.44 43.2808 125.322 43.2808C124.204 43.2808 123.366 44.1541 123.366 45.3187Z" fill="white" fill-opacity="0.6"/>
<path d="M107.945 45.3187C107.945 46.4832 108.783 47.3565 109.901 47.3565C111.019 47.3565 111.858 46.4832 111.858 45.3187C111.858 44.1541 111.019 43.2808 109.901 43.2808C108.877 43.2808 107.945 44.1541 107.945 45.3187Z" fill="white" fill-opacity="0.6"/>
<path d="M92.5243 45.3187C92.5243 46.4832 93.3628 47.3565 94.4807 47.3565C95.5987 47.3565 96.4371 46.4832 96.4371 45.3187C96.4371 44.1541 95.5987 43.2808 94.4807 43.2808C93.3628 43.2808 92.5243 44.1541 92.5243 45.3187Z" fill="white" fill-opacity="0.6"/>
<path d="M77.1036 45.3187C77.1036 46.4832 77.942 47.3565 79.06 47.3565C80.178 47.3565 81.0164 46.4832 81.0164 45.3187C81.0164 44.1541 80.178 43.2808 79.06 43.2808C77.942 43.2808 77.1036 44.1541 77.1036 45.3187Z" fill="white" fill-opacity="0.6"/>
<path d="M61.6829 45.3187C61.6829 46.4832 62.5213 47.3565 63.6393 47.3565C64.7572 47.3565 65.5957 46.4832 65.5957 45.3187C65.5957 44.1541 64.7572 43.2808 63.6393 43.2808C62.6145 43.2808 61.6829 44.1541 61.6829 45.3187Z" fill="white" fill-opacity="0.6"/>
<path d="M46.2622 45.3187C46.2622 46.4832 47.1006 47.3565 48.2186 47.3565C49.3365 47.3565 50.175 46.4832 50.175 45.3187C50.175 44.1541 49.3365 43.2808 48.2186 43.2808C47.1006 43.2808 46.2622 44.1541 46.2622 45.3187Z" fill="white" fill-opacity="0.6"/>
<path d="M30.8414 45.3187C30.8414 46.4832 31.6799 47.3565 32.7979 47.3565C33.9158 47.3565 34.7543 46.4832 34.7543 45.3187C34.7543 44.1541 33.9158 43.2808 32.7979 43.2808C31.6799 43.2808 30.8414 44.1541 30.8414 45.3187Z" fill="white" fill-opacity="0.6"/>
<path d="M15.4207 45.3187C15.4207 46.4832 16.2592 47.3565 17.3771 47.3565C18.4951 47.3565 19.3336 46.4832 19.3336 45.3187C19.3336 44.1541 18.4951 43.2808 17.3771 43.2808C16.2592 43.2808 15.4207 44.1541 15.4207 45.3187Z" fill="white" fill-opacity="0.6"/>
<path d="M2.22265e-05 45.3187C2.22265e-05 46.4832 0.838477 47.3565 1.95643 47.3565C3.07438 47.3565 3.91285 46.4832 3.91285 45.3187C3.91285 44.1541 3.07438 43.2808 1.95643 43.2808C0.93164 43.2808 2.22265e-05 44.1541 2.22265e-05 45.3187Z" fill="white" fill-opacity="0.6"/>
<path d="M123.366 2.03789C123.366 3.2024 124.204 4.07579 125.322 4.07579C126.44 4.07579 127.279 3.2024 127.279 2.03789C127.279 0.873382 126.44 0 125.322 0C124.204 0 123.366 0.873382 123.366 2.03789Z" fill="white" fill-opacity="0.6"/>
<path d="M107.945 2.03789C107.945 3.2024 108.783 4.07579 109.901 4.07579C111.019 4.07579 111.858 3.2024 111.858 2.03789C111.858 0.873382 111.019 0 109.901 0C108.877 0 107.945 0.873382 107.945 2.03789Z" fill="white" fill-opacity="0.6"/>
<path d="M92.5243 2.03789C92.5243 3.2024 93.3628 4.07579 94.4807 4.07579C95.5987 4.07579 96.4371 3.2024 96.4371 2.03789C96.4371 0.873382 95.5055 0 94.4807 0C93.3628 0 92.5243 0.873382 92.5243 2.03789Z" fill="white" fill-opacity="0.6"/>
<path d="M77.1036 2.03789C77.1036 3.2024 77.942 4.07579 79.06 4.07579C80.178 4.07579 81.0164 3.2024 81.0164 2.03789C81.0164 0.873382 80.0848 0 79.06 0C78.0352 0 77.1036 0.873382 77.1036 2.03789Z" fill="white" fill-opacity="0.6"/>
<path d="M61.6829 2.03789C61.6829 3.2024 62.5213 4.07579 63.6393 4.07579C64.7572 4.07579 65.5957 3.2024 65.5957 2.03789C65.5957 0.873382 64.7572 0 63.6393 0C62.6145 0 61.6829 0.873382 61.6829 2.03789Z" fill="white" fill-opacity="0.6"/>
<path d="M46.2622 2.03789C46.2622 3.2024 47.1006 4.07579 48.2186 4.07579C49.3365 4.07579 50.175 3.2024 50.175 2.03789C50.175 0.873382 49.3365 0 48.2186 0C47.1006 0 46.2622 0.873382 46.2622 2.03789Z" fill="white" fill-opacity="0.6"/>
<path d="M30.8414 2.03789C30.8414 3.2024 31.6799 4.07579 32.7979 4.07579C33.9158 4.07579 34.7543 3.2024 34.7543 2.03789C34.7543 0.873382 33.9158 0 32.7979 0C31.6799 0 30.8414 0.873382 30.8414 2.03789Z" fill="white" fill-opacity="0.6"/>
<path d="M15.4207 2.03789C15.4207 3.2024 16.2592 4.07579 17.3771 4.07579C18.4951 4.07579 19.3336 3.2024 19.3336 2.03789C19.3336 0.873382 18.4951 0 17.3771 0C16.2592 0 15.4207 0.873382 15.4207 2.03789Z" fill="white" fill-opacity="0.6"/>
<path d="M2.22265e-05 2.03789C2.22265e-05 3.2024 0.838477 4.07579 1.95643 4.07579C3.07438 4.07579 3.91285 3.2024 3.91285 2.03789C3.91285 0.873382 3.07438 0 1.95643 0C0.93164 0 2.22265e-05 0.873382 2.22265e-05 2.03789Z" fill="white" fill-opacity="0.6"/>
<path d="M123.366 16.4973C123.366 17.6618 124.204 18.5352 125.322 18.5352C126.44 18.5352 127.279 17.5647 127.279 16.4973C127.279 15.3328 126.44 14.4594 125.322 14.4594C124.204 14.4594 123.366 15.3328 123.366 16.4973Z" fill="white" fill-opacity="0.6"/>
<path d="M107.945 16.4972C107.945 17.6618 108.783 18.5351 109.901 18.5351C111.019 18.5351 111.858 17.6618 111.858 16.4972C111.858 15.3327 111.019 14.4594 109.901 14.4594C108.877 14.4594 107.945 15.3327 107.945 16.4972Z" fill="white" fill-opacity="0.6"/>
<path d="M92.5243 16.4972C92.5243 17.6618 93.3628 18.5351 94.4807 18.5351C95.5987 18.5351 96.4371 17.6618 96.4371 16.4972C96.4371 15.3327 95.5987 14.4594 94.4807 14.4594C93.3628 14.4594 92.5243 15.3327 92.5243 16.4972Z" fill="white" fill-opacity="0.6"/>
<path d="M77.1036 16.4972C77.1036 17.6618 77.942 18.5351 79.06 18.5351C80.178 18.5351 81.0164 17.6618 81.0164 16.4972C81.0164 15.3327 80.178 14.4594 79.06 14.4594C77.942 14.4594 77.1036 15.3327 77.1036 16.4972Z" fill="white" fill-opacity="0.6"/>
<path d="M61.6829 16.4972C61.6829 17.6618 62.5213 18.5351 63.6393 18.5351C64.7572 18.5351 65.5957 17.6618 65.5957 16.4972C65.5957 15.3327 64.7572 14.4594 63.6393 14.4594C62.6145 14.4594 61.6829 15.3327 61.6829 16.4972Z" fill="white" fill-opacity="0.6"/>
<path d="M46.2622 16.4972C46.2622 17.6618 47.1006 18.5351 48.2186 18.5351C49.3365 18.5351 50.175 17.6618 50.175 16.4972C50.175 15.3327 49.3365 14.4594 48.2186 14.4594C47.1006 14.4594 46.2622 15.3327 46.2622 16.4972Z" fill="white" fill-opacity="0.6"/>
<path d="M30.8414 16.4972C30.8414 17.6618 31.6799 18.5351 32.7979 18.5351C33.9158 18.5351 34.7543 17.6618 34.7543 16.4972C34.7543 15.3327 33.9158 14.4594 32.7979 14.4594C31.6799 14.4594 30.8414 15.3327 30.8414 16.4972Z" fill="white" fill-opacity="0.6"/>
<path d="M15.4207 16.4972C15.4207 17.6618 16.2592 18.5351 17.3771 18.5351C18.4951 18.5351 19.3336 17.6618 19.3336 16.4972C19.3336 15.3327 18.4951 14.4594 17.3771 14.4594C16.2592 14.4594 15.4207 15.3327 15.4207 16.4972Z" fill="white" fill-opacity="0.6"/>
<path d="M2.22265e-05 16.4972C2.22265e-05 17.6618 0.838477 18.5351 1.95643 18.5351C3.07438 18.5351 3.91285 17.6618 3.91285 16.4972C3.91285 15.3327 3.07438 14.4594 1.95643 14.4594C0.93164 14.4594 2.22265e-05 15.3327 2.22265e-05 16.4972Z" fill="white" fill-opacity="0.6"/>
<path d="M123.366 59.6812C123.366 60.8457 124.204 61.7191 125.322 61.7191C126.44 61.7191 127.279 60.8457 127.279 59.6812C127.279 58.5167 126.44 57.6433 125.322 57.6433C124.204 57.6433 123.366 58.6137 123.366 59.6812Z" fill="white" fill-opacity="0.6"/>
<path d="M107.945 59.6812C107.945 60.8457 108.783 61.7191 109.901 61.7191C111.019 61.7191 111.858 60.8457 111.858 59.6812C111.858 58.5167 111.019 57.6433 109.901 57.6433C108.877 57.6433 107.945 58.6137 107.945 59.6812Z" fill="white" fill-opacity="0.6"/>
<path d="M92.5243 59.6812C92.5243 60.8457 93.3628 61.7191 94.4807 61.7191C95.5987 61.7191 96.4371 60.8457 96.4371 59.6812C96.4371 58.5167 95.5987 57.6433 94.4807 57.6433C93.3628 57.6433 92.5243 58.6137 92.5243 59.6812Z" fill="white" fill-opacity="0.6"/>
<path d="M77.1036 59.6812C77.1036 60.8457 77.942 61.7191 79.06 61.7191C80.178 61.7191 81.0164 60.8457 81.0164 59.6812C81.0164 58.5167 80.178 57.6433 79.06 57.6433C77.942 57.6433 77.1036 58.6137 77.1036 59.6812Z" fill="white" fill-opacity="0.6"/>
<path d="M61.6829 59.6812C61.6829 60.8457 62.5213 61.7191 63.6393 61.7191C64.7572 61.7191 65.5957 60.8457 65.5957 59.6812C65.5957 58.5167 64.7572 57.6433 63.6393 57.6433C62.6145 57.6433 61.6829 58.6137 61.6829 59.6812Z" fill="white" fill-opacity="0.6"/>
<path d="M46.2622 59.6812C46.2622 60.8457 47.1006 61.7191 48.2186 61.7191C49.3365 61.7191 50.175 60.8457 50.175 59.6812C50.175 58.5167 49.3365 57.6433 48.2186 57.6433C47.1006 57.6433 46.2622 58.6137 46.2622 59.6812Z" fill="white" fill-opacity="0.6"/>
<path d="M30.8414 59.6812C30.8414 60.8457 31.6799 61.7191 32.7979 61.7191C33.9158 61.7191 34.7543 60.8457 34.7543 59.6812C34.7543 58.5167 33.9158 57.6433 32.7979 57.6433C31.6799 57.6433 30.8414 58.6137 30.8414 59.6812Z" fill="white" fill-opacity="0.6"/>
<path d="M15.4207 59.6812C15.4207 60.8457 16.2592 61.7191 17.3771 61.7191C18.4951 61.7191 19.3336 60.8457 19.3336 59.6812C19.3336 58.5167 18.4951 57.6433 17.3771 57.6433C16.2592 57.6433 15.4207 58.6137 15.4207 59.6812Z" fill="white" fill-opacity="0.6"/>
<path d="M2.22265e-05 59.6812C2.22265e-05 60.8457 0.838477 61.7191 1.95643 61.7191C3.07438 61.7191 3.91285 60.8457 3.91285 59.6812C3.91285 58.5167 3.07438 57.6433 1.95643 57.6433C0.93164 57.6433 2.22265e-05 58.6137 2.22265e-05 59.6812Z" fill="white" fill-opacity="0.6"/>
<path d="M123.366 74.1403C123.366 75.3048 124.204 76.1782 125.322 76.1782C126.44 76.1782 127.279 75.3048 127.279 74.1403C127.279 72.9758 126.44 72.1024 125.322 72.1024C124.204 72.1024 123.366 72.9758 123.366 74.1403Z" fill="white" fill-opacity="0.6"/>
<path d="M107.945 74.1403C107.945 75.3048 108.783 76.1782 109.901 76.1782C111.019 76.1782 111.858 75.3048 111.858 74.1403C111.858 72.9758 111.019 72.1024 109.901 72.1024C108.877 72.1024 107.945 72.9758 107.945 74.1403Z" fill="white" fill-opacity="0.6"/>
<path d="M92.5243 74.1403C92.5243 75.3048 93.3628 76.1782 94.4807 76.1782C95.5987 76.1782 96.4371 75.3048 96.4371 74.1403C96.4371 72.9758 95.5987 72.1024 94.4807 72.1024C93.3628 72.1024 92.5243 72.9758 92.5243 74.1403Z" fill="white" fill-opacity="0.6"/>
<path d="M79.06 76.1782C77.9795 76.1782 77.1036 75.2658 77.1036 74.1403C77.1036 73.0148 77.9795 72.1024 79.06 72.1024C80.1405 72.1024 81.0164 73.0148 81.0164 74.1403C81.0164 75.2658 80.1405 76.1782 79.06 76.1782Z" fill="white" fill-opacity="0.6"/>
<path d="M61.6829 74.1403C61.6829 75.3048 62.5213 76.1782 63.6393 76.1782C64.7572 76.1782 65.5957 75.3048 65.5957 74.1403C65.5957 72.9758 64.7572 72.1024 63.6393 72.1024C62.6145 72.1024 61.6829 72.9758 61.6829 74.1403Z" fill="white" fill-opacity="0.6"/>
<path d="M46.2622 74.1403C46.2622 75.3048 47.1006 76.1782 48.2186 76.1782C49.3365 76.1782 50.175 75.3048 50.175 74.1403C50.175 72.9758 49.3365 72.1024 48.2186 72.1024C47.1006 72.1024 46.2622 72.9758 46.2622 74.1403Z" fill="white" fill-opacity="0.6"/>
<path d="M30.8414 74.1403C30.8414 75.3048 31.6799 76.1782 32.7979 76.1782C33.9158 76.1782 34.7543 75.3048 34.7543 74.1403C34.7543 72.9758 33.9158 72.1024 32.7979 72.1024C31.6799 72.1024 30.8414 72.9758 30.8414 74.1403Z" fill="white" fill-opacity="0.6"/>
<path d="M17.3771 76.1782C16.2966 76.1782 15.4207 75.2658 15.4207 74.1403C15.4207 73.0148 16.2966 72.1024 17.3771 72.1024C18.4576 72.1024 19.3336 73.0148 19.3336 74.1403C19.3336 75.2658 18.4576 76.1782 17.3771 76.1782Z" fill="white" fill-opacity="0.6"/>
<path d="M2.22265e-05 74.1403C2.22265e-05 75.3048 0.838477 76.1782 1.95643 76.1782C3.07438 76.1782 3.91285 75.3048 3.91285 74.1403C3.91285 72.9758 3.07438 72.1024 1.95643 72.1024C0.93164 72.1024 2.22265e-05 72.9758 2.22265e-05 74.1403Z" fill="white" fill-opacity="0.6"/>
<path d="M123.366 88.5999C123.366 89.7645 124.204 90.6378 125.322 90.6378C126.44 90.6378 127.279 89.7645 127.279 88.5999C127.279 87.4354 126.44 86.562 125.322 86.562C124.204 86.562 123.366 87.4354 123.366 88.5999Z" fill="white" fill-opacity="0.6"/>
<path d="M107.945 88.5999C107.945 89.7644 108.783 90.6378 109.901 90.6378C111.019 90.6378 111.858 89.7644 111.858 88.5999C111.858 87.4354 111.019 86.562 109.901 86.562C108.877 86.562 107.945 87.4354 107.945 88.5999Z" fill="white" fill-opacity="0.6"/>
<path d="M92.5243 88.5999C92.5243 89.7644 93.3628 90.6378 94.4807 90.6378C95.5987 90.6378 96.4371 89.7644 96.4371 88.5999C96.4371 87.4354 95.5987 86.562 94.4807 86.562C93.3628 86.562 92.5243 87.4354 92.5243 88.5999Z" fill="white" fill-opacity="0.6"/>
<path d="M77.1036 88.5999C77.1036 89.7644 77.942 90.6378 79.06 90.6378C80.178 90.6378 81.0164 89.7644 81.0164 88.5999C81.0164 87.4354 80.178 86.562 79.06 86.562C77.942 86.562 77.1036 87.4354 77.1036 88.5999Z" fill="white" fill-opacity="0.6"/>
<path d="M61.6829 88.5999C61.6829 89.7644 62.5213 90.6378 63.6393 90.6378C64.7572 90.6378 65.5957 89.7644 65.5957 88.5999C65.5957 87.4354 64.7572 86.562 63.6393 86.562C62.6145 86.562 61.6829 87.4354 61.6829 88.5999Z" fill="white" fill-opacity="0.6"/>
<path d="M46.2622 88.5999C46.2622 89.7644 47.1006 90.6378 48.2186 90.6378C49.3365 90.6378 50.175 89.7644 50.175 88.5999C50.175 87.4354 49.3365 86.562 48.2186 86.562C47.1006 86.562 46.2622 87.4354 46.2622 88.5999Z" fill="white" fill-opacity="0.6"/>
<path d="M30.8414 88.5999C30.8414 89.7644 31.6799 90.6378 32.7979 90.6378C33.9158 90.6378 34.7543 89.7644 34.7543 88.5999C34.7543 87.4354 33.9158 86.562 32.7979 86.562C31.6799 86.562 30.8414 87.4354 30.8414 88.5999Z" fill="white" fill-opacity="0.6"/>
<path d="M15.4207 88.5999C15.4207 89.7644 16.2592 90.6378 17.3771 90.6378C18.4951 90.6378 19.3336 89.7644 19.3336 88.5999C19.3336 87.4354 18.4951 86.562 17.3771 86.562C16.2592 86.562 15.4207 87.4354 15.4207 88.5999Z" fill="white" fill-opacity="0.6"/>
<path d="M2.22265e-05 88.5999C2.22265e-05 89.7644 0.838477 90.6378 1.95643 90.6378C3.07438 90.6378 3.91285 89.7644 3.91285 88.5999C3.91285 87.4354 3.07438 86.562 1.95643 86.562C0.93164 86.562 2.22265e-05 87.4354 2.22265e-05 88.5999Z" fill="white" fill-opacity="0.6"/>
<path d="M123.366 102.962C123.366 104.127 124.204 105 125.322 105C126.44 105 127.279 104.127 127.279 102.962C127.279 101.798 126.44 100.924 125.322 100.924C124.204 100.924 123.366 101.895 123.366 102.962Z" fill="white" fill-opacity="0.6"/>
<path d="M107.945 102.962C107.945 104.127 108.783 105 109.901 105C111.019 105 111.858 104.127 111.858 102.962C111.858 101.798 111.019 100.924 109.901 100.924C108.877 100.924 107.945 101.895 107.945 102.962Z" fill="white" fill-opacity="0.6"/>
<path d="M92.5243 102.962C92.5243 104.127 93.3628 105 94.4807 105C95.5987 105 96.4371 104.127 96.4371 102.962C96.4371 101.798 95.5987 100.924 94.4807 100.924C93.3628 100.924 92.5243 101.895 92.5243 102.962Z" fill="white" fill-opacity="0.6"/>
<path d="M77.1036 102.962C77.1036 104.127 77.942 105 79.06 105C80.178 105 81.0164 104.127 81.0164 102.962C81.0164 101.798 80.178 100.924 79.06 100.924C77.942 100.924 77.1036 101.895 77.1036 102.962Z" fill="white" fill-opacity="0.6"/>
<path d="M61.6829 102.962C61.6829 104.127 62.5213 105 63.6393 105C64.7572 105 65.5957 104.127 65.5957 102.962C65.5957 101.798 64.7572 100.924 63.6393 100.924C62.6145 100.924 61.6829 101.895 61.6829 102.962Z" fill="white" fill-opacity="0.6"/>
<path d="M46.2622 102.962C46.2622 104.127 47.1006 105 48.2186 105C49.3365 105 50.175 104.127 50.175 102.962C50.175 101.798 49.3365 100.924 48.2186 100.924C47.1006 100.924 46.2622 101.895 46.2622 102.962Z" fill="white" fill-opacity="0.6"/>
<path d="M30.8414 102.962C30.8414 104.127 31.6799 105 32.7979 105C33.9158 105 34.7543 104.127 34.7543 102.962C34.7543 101.798 33.9158 100.924 32.7979 100.924C31.6799 100.924 30.8414 101.895 30.8414 102.962Z" fill="white" fill-opacity="0.6"/>
<path d="M15.4207 102.962C15.4207 104.127 16.2592 105 17.3771 105C18.4951 105 19.3336 104.127 19.3336 102.962C19.3336 101.798 18.4951 100.924 17.3771 100.924C16.2592 100.924 15.4207 101.895 15.4207 102.962Z" fill="white" fill-opacity="0.6"/>
<path d="M2.22265e-05 102.962C2.22265e-05 104.127 0.838477 105 1.95643 105C3.07438 105 3.91285 104.127 3.91285 102.962C3.91285 101.798 3.07438 100.924 1.95643 100.924C0.93164 100.924 2.22265e-05 101.895 2.22265e-05 102.962Z" fill="white" fill-opacity="0.6"/>
</svg>
