<svg viewBox="0 0 136 115" fill="none" xmlns="http://www.w3.org/2000/svg">
<path d="M3.88043 33.7049C3.88043 34.9768 3.04891 35.9307 1.94022 35.9307C0.831521 35.9307 0 34.9768 0 33.7049C0 32.433 0.831521 31.4791 1.94022 31.4791C3.04891 31.4791 3.88043 32.539 3.88043 33.7049Z" fill="#00DF9C"/>
<path d="M20.4185 33.705C20.4185 34.9768 19.587 35.9307 18.4783 35.9307C17.3696 35.9307 16.5381 34.9768 16.5381 33.705C16.5381 32.4331 17.3696 31.4792 18.4783 31.4792C19.4946 31.4792 20.4185 32.5391 20.4185 33.705Z" fill="#00DF9C"/>
<path d="M36.8641 33.705C36.8641 34.9769 36.0326 35.9308 34.9239 35.9308C33.8152 35.9308 32.9837 34.9769 32.9837 33.705C32.9837 32.4331 33.8152 31.4792 34.9239 31.4792C36.0326 31.4792 36.8641 32.5391 36.8641 33.705Z" fill="#00DF9C"/>
<path d="M53.4022 33.705C53.4022 34.9769 52.5707 35.9308 51.462 35.9308C50.3533 35.9308 49.5218 34.9769 49.5218 33.705C49.5218 32.4331 50.3533 31.4792 51.462 31.4792C52.5707 31.4792 53.4022 32.5391 53.4022 33.705Z" fill="#00DF9C"/>
<path d="M69.9402 33.7049C69.9402 34.9768 69.1087 35.9307 68 35.9307C66.8913 35.9307 66.0598 34.9768 66.0598 33.7049C66.0598 32.433 66.8913 31.4791 68 31.4791C69.0163 31.4791 69.9402 32.539 69.9402 33.7049Z" fill="#00DF9C"/>
<path d="M86.4783 33.705C86.4783 34.9769 85.6468 35.9308 84.5381 35.9308C83.4294 35.9308 82.5979 34.9769 82.5979 33.705C82.5979 32.4331 83.4294 31.4792 84.5381 31.4792C85.6468 31.4792 86.4783 32.5391 86.4783 33.705Z" fill="#00DF9C"/>
<path d="M102.924 33.705C102.924 34.9769 102.092 35.9308 100.984 35.9308C99.8751 35.9308 99.0435 34.9769 99.0435 33.705C99.0435 32.4331 99.8751 31.4792 100.984 31.4792C102.092 31.4792 102.924 32.5391 102.924 33.705Z" fill="#00DF9C"/>
<path d="M119.462 33.7049C119.462 34.9768 118.631 35.9307 117.522 35.9307C116.413 35.9307 115.582 34.9768 115.582 33.7049C115.582 32.433 116.413 31.4791 117.522 31.4791C118.631 31.4791 119.462 32.539 119.462 33.7049Z" fill="#00DF9C"/>
<path d="M136 33.705C136 34.9768 135.169 35.9307 134.06 35.9307C132.951 35.9307 132.12 34.9768 132.12 33.705C132.12 32.4331 132.951 31.4792 134.06 31.4792C135.076 31.4792 136 32.5391 136 33.705Z" fill="#00DF9C"/>
<path d="M3.88043 49.4977C3.88043 50.7697 3.04891 51.7236 1.94022 51.7236C0.831521 51.7236 0 50.7697 0 49.4977C0 48.2258 0.831521 47.2719 1.94022 47.2719C3.04891 47.2719 3.88043 48.2258 3.88043 49.4977Z" fill="#00DF9C"/>
<path d="M20.4185 49.4978C20.4185 50.7697 19.587 51.7236 18.4783 51.7236C17.3696 51.7236 16.5381 50.7697 16.5381 49.4978C16.5381 48.2259 17.3696 47.272 18.4783 47.272C19.4946 47.272 20.4185 48.2259 20.4185 49.4978Z" fill="#00DF9C"/>
<path d="M36.8641 49.4979C36.8641 50.7698 36.0326 51.7238 34.9239 51.7238C33.8152 51.7238 32.9837 50.7698 32.9837 49.4979C32.9837 48.2259 33.8152 47.272 34.9239 47.272C36.0326 47.272 36.8641 48.2259 36.8641 49.4979Z" fill="#00DF9C"/>
<path d="M53.4023 49.4977C53.4023 50.7697 52.5707 51.7236 51.462 51.7236C50.3533 51.7236 49.5218 50.7697 49.5218 49.4977C49.5218 48.2258 50.3533 47.2719 51.462 47.2719C52.5707 47.2719 53.4023 48.2258 53.4023 49.4977Z" fill="#00DF9C"/>
<path d="M69.9402 49.4977C69.9402 50.7697 69.1087 51.7236 68 51.7236C66.8913 51.7236 66.0598 50.7697 66.0598 49.4977C66.0598 48.2258 66.8913 47.2719 68 47.2719C69.0163 47.2719 69.9402 48.2258 69.9402 49.4977Z" fill="#00DF9C"/>
<path d="M86.4783 49.4979C86.4783 50.7698 85.6468 51.7238 84.5381 51.7238C83.4294 51.7238 82.5979 50.7698 82.5979 49.4979C82.5979 48.2259 83.4294 47.272 84.5381 47.272C85.6468 47.272 86.4783 48.2259 86.4783 49.4979Z" fill="#00DF9C"/>
<path d="M102.924 49.4979C102.924 50.7698 102.092 51.7238 100.984 51.7238C99.875 51.7238 99.0435 50.7698 99.0435 49.4979C99.0435 48.2259 99.875 47.272 100.984 47.272C102.092 47.272 102.924 48.2259 102.924 49.4979Z" fill="#00DF9C"/>
<path d="M119.462 49.4977C119.462 50.7697 118.631 51.7236 117.522 51.7236C116.413 51.7236 115.582 50.7697 115.582 49.4977C115.582 48.2258 116.413 47.2719 117.522 47.2719C118.631 47.2719 119.462 48.2258 119.462 49.4977Z" fill="#00DF9C"/>
<path d="M136 49.4978C136 50.7697 135.169 51.7236 134.06 51.7236C132.951 51.7236 132.12 50.7697 132.12 49.4978C132.12 48.2259 132.951 47.272 134.06 47.272C135.076 47.272 136 48.2259 136 49.4978Z" fill="#00DF9C"/>
<path d="M3.88043 2.22583C3.88043 3.49773 3.04891 4.45166 1.94022 4.45166C0.831521 4.45166 0 3.49773 0 2.22583C0 0.953927 0.831521 0 1.94022 0C3.04891 0 3.88043 0.953927 3.88043 2.22583Z" fill="#00DF9C"/>
<path d="M20.4185 2.22589C20.4185 3.49779 19.587 4.45172 18.4783 4.45172C17.3696 4.45172 16.5381 3.49779 16.5381 2.22589C16.5381 0.953988 17.3696 6.10352e-05 18.4783 6.10352e-05C19.4946 6.10352e-05 20.4185 0.953988 20.4185 2.22589Z" fill="#00DF9C"/>
<path d="M36.8641 2.22591C36.8641 3.49781 36.0326 4.45174 34.9239 4.45174C33.8152 4.45174 32.9837 3.49781 32.9837 2.22591C32.9837 0.954003 33.9076 7.62939e-05 34.9239 7.62939e-05C36.0326 7.62939e-05 36.8641 0.954003 36.8641 2.22591Z" fill="#00DF9C"/>
<path d="M53.4022 2.2258C53.4022 3.4977 52.5707 4.45163 51.462 4.45163C50.3533 4.45163 49.5218 3.4977 49.5218 2.2258C49.5218 0.953897 50.4457 -3.05176e-05 51.462 -3.05176e-05C52.4783 -3.05176e-05 53.4022 0.953897 53.4022 2.2258Z" fill="#00DF9C"/>
<path d="M69.9402 2.22586C69.9402 3.49776 69.1087 4.45169 68 4.45169C66.8913 4.45169 66.0598 3.49776 66.0598 2.22586C66.0598 0.953958 66.8913 3.05176e-05 68 3.05176e-05C69.0163 3.05176e-05 69.9402 0.953958 69.9402 2.22586Z" fill="#00DF9C"/>
<path d="M86.4783 2.22575C86.4783 3.49766 85.6468 4.45158 84.5381 4.45158C83.4294 4.45158 82.5979 3.49766 82.5979 2.22575C82.5979 0.953851 83.4294 -7.62939e-05 84.5381 -7.62939e-05C85.6468 -7.62939e-05 86.4783 0.953851 86.4783 2.22575Z" fill="#00DF9C"/>
<path d="M102.924 2.22571C102.924 3.49758 102.092 4.45148 100.984 4.45148C99.8751 4.45148 99.0435 3.49758 99.0435 2.22571C99.0435 0.95384 99.8751 -6.10352e-05 100.984 -6.10352e-05C102.092 -6.10352e-05 102.924 0.95384 102.924 2.22571Z" fill="#00DF9C"/>
<path d="M119.462 2.22583C119.462 3.49773 118.631 4.45166 117.522 4.45166C116.413 4.45166 115.582 3.49773 115.582 2.22583C115.582 0.953927 116.413 0 117.522 0C118.631 0 119.462 0.953927 119.462 2.22583Z" fill="#00DF9C"/>
<path d="M136 2.22589C136 3.49779 135.169 4.45172 134.06 4.45172C132.951 4.45172 132.12 3.49779 132.12 2.22589C132.12 0.953988 132.951 6.10352e-05 134.06 6.10352e-05C135.076 6.10352e-05 136 0.953988 136 2.22589Z" fill="#00DF9C"/>
<path d="M3.88045 18.0184C3.88045 19.2903 3.04892 20.2443 1.94022 20.2443C0.831524 20.2443 0 19.1843 0 18.0184C0 16.7464 0.831524 15.7925 1.94022 15.7925C3.04892 15.7925 3.88045 16.7464 3.88045 18.0184Z" fill="#00DF9C"/>
<path d="M20.4185 18.0184C20.4185 19.2903 19.587 20.2443 18.4783 20.2443C17.3696 20.2443 16.5381 19.2903 16.5381 18.0184C16.5381 16.7464 17.3696 15.7925 18.4783 15.7925C19.4946 15.7925 20.4185 16.7464 20.4185 18.0184Z" fill="#00DF9C"/>
<path d="M36.8641 18.0184C36.8641 19.2903 36.0326 20.2443 34.9239 20.2443C33.8152 20.2443 32.9837 19.2903 32.9837 18.0184C32.9837 16.7464 33.8152 15.7925 34.9239 15.7925C36.0326 15.7925 36.8641 16.7464 36.8641 18.0184Z" fill="#00DF9C"/>
<path d="M53.4023 18.0183C53.4023 19.2902 52.5707 20.2441 51.462 20.2441C50.3533 20.2441 49.5218 19.2902 49.5218 18.0183C49.5218 16.7464 50.3533 15.7925 51.462 15.7925C52.5707 15.7925 53.4023 16.7464 53.4023 18.0183Z" fill="#00DF9C"/>
<path d="M69.9402 18.0184C69.9402 19.2903 69.1087 20.2443 68 20.2443C66.8913 20.2443 66.0598 19.2903 66.0598 18.0184C66.0598 16.7464 66.8913 15.7925 68 15.7925C69.0163 15.7925 69.9402 16.7464 69.9402 18.0184Z" fill="#00DF9C"/>
<path d="M86.4783 18.0184C86.4783 19.2903 85.6468 20.2443 84.5381 20.2443C83.4294 20.2443 82.5978 19.2903 82.5978 18.0184C82.5978 16.7464 83.4294 15.7925 84.5381 15.7925C85.6468 15.7925 86.4783 16.7464 86.4783 18.0184Z" fill="#00DF9C"/>
<path d="M102.924 18.0185C102.924 19.2904 102.092 20.2444 100.984 20.2444C99.875 20.2444 99.0435 19.2904 99.0435 18.0185C99.0435 16.7466 99.875 15.7926 100.984 15.7926C102.092 15.7926 102.924 16.7466 102.924 18.0185Z" fill="#00DF9C"/>
<path d="M119.462 18.0184C119.462 19.2903 118.631 20.2443 117.522 20.2443C116.413 20.2443 115.582 19.2903 115.582 18.0184C115.582 16.7464 116.413 15.7925 117.522 15.7925C118.631 15.7925 119.462 16.7464 119.462 18.0184Z" fill="#00DF9C"/>
<path d="M136 18.0184C136 19.2903 135.169 20.2443 134.06 20.2443C132.951 20.2443 132.12 19.2903 132.12 18.0184C132.12 16.7464 132.951 15.7925 134.06 15.7925C135.076 15.7925 136 16.7464 136 18.0184Z" fill="#00DF9C"/>
<path d="M3.88043 65.1844C3.88043 66.4563 3.04891 67.4102 1.94022 67.4102C0.831521 67.4102 0 66.4563 0 65.1844C0 63.9125 0.831521 62.9586 1.94022 62.9586C3.04891 62.9586 3.88043 64.0185 3.88043 65.1844Z" fill="#00DF9C"/>
<path d="M20.4185 65.1844C20.4185 66.4563 19.5869 67.4102 18.4782 67.4102C17.3695 67.4102 16.538 66.4563 16.538 65.1844C16.538 63.9126 17.3695 62.9587 18.4782 62.9587C19.4946 62.9587 20.4185 64.0186 20.4185 65.1844Z" fill="#00DF9C"/>
<path d="M36.8641 65.1845C36.8641 66.4564 36.0326 67.4103 34.9239 67.4103C33.8152 67.4103 32.9837 66.4564 32.9837 65.1845C32.9837 63.9126 33.8152 62.9587 34.9239 62.9587C36.0326 62.9587 36.8641 64.0186 36.8641 65.1845Z" fill="#00DF9C"/>
<path d="M53.4022 65.1844C53.4022 66.4563 52.5707 67.4102 51.462 67.4102C50.3533 67.4102 49.5218 66.4563 49.5218 65.1844C49.5218 63.9125 50.3533 62.9586 51.462 62.9586C52.5707 62.9586 53.4022 64.0185 53.4022 65.1844Z" fill="#00DF9C"/>
<path d="M69.9402 65.1844C69.9402 66.4563 69.1087 67.4102 68 67.4102C66.8913 67.4102 66.0598 66.4563 66.0598 65.1844C66.0598 63.9125 66.8913 62.9586 68 62.9586C69.0163 62.9586 69.9402 64.0185 69.9402 65.1844Z" fill="#00DF9C"/>
<path d="M86.4783 65.1845C86.4783 66.4564 85.6468 67.4103 84.5381 67.4103C83.4294 67.4103 82.5979 66.4564 82.5979 65.1845C82.5979 63.9126 83.4294 62.9587 84.5381 62.9587C85.6468 62.9587 86.4783 64.0186 86.4783 65.1845Z" fill="#00DF9C"/>
<path d="M102.924 65.1845C102.924 66.4564 102.092 67.4103 100.984 67.4103C99.875 67.4103 99.0435 66.4564 99.0435 65.1845C99.0435 63.9126 99.875 62.9587 100.984 62.9587C102.092 62.9587 102.924 64.0186 102.924 65.1845Z" fill="#00DF9C"/>
<path d="M119.462 65.1844C119.462 66.4563 118.631 67.4102 117.522 67.4102C116.413 67.4102 115.582 66.4563 115.582 65.1844C115.582 63.9125 116.413 62.9586 117.522 62.9586C118.631 62.9586 119.462 64.0185 119.462 65.1844Z" fill="#00DF9C"/>
<path d="M136 65.1844C136 66.4563 135.169 67.4102 134.06 67.4102C132.951 67.4102 132.12 66.4563 132.12 65.1844C132.12 63.9126 132.951 62.9587 134.06 62.9587C135.076 62.9587 136 64.0186 136 65.1844Z" fill="#00DF9C"/>
<path d="M3.88043 80.977C3.88043 82.2488 3.04891 83.2026 1.94022 83.2026C0.831521 83.2026 0 82.2488 0 80.977C0 79.7052 0.831521 78.7513 1.94022 78.7513C3.04891 78.7513 3.88043 79.7052 3.88043 80.977Z" fill="#00DF9C"/>
<path d="M20.4185 80.9769C20.4185 82.2488 19.587 83.2026 18.4783 83.2026C17.3696 83.2026 16.5381 82.2488 16.5381 80.9769C16.5381 79.7051 17.3696 78.7512 18.4783 78.7512C19.4946 78.7512 20.4185 79.7051 20.4185 80.9769Z" fill="#00DF9C"/>
<path d="M36.8642 80.9769C36.8642 82.2488 36.0326 83.2026 34.9239 83.2026C33.8153 83.2026 32.9837 82.2488 32.9837 80.9769C32.9837 79.7051 33.8153 78.7512 34.9239 78.7512C36.0326 78.7512 36.8642 79.7051 36.8642 80.9769Z" fill="#00DF9C"/>
<path d="M51.462 83.2026C52.5336 83.2026 53.4022 82.2062 53.4022 80.9769C53.4022 79.7477 52.5336 78.7512 51.462 78.7512C50.3905 78.7512 49.5218 79.7477 49.5218 80.9769C49.5218 82.2062 50.3905 83.2026 51.462 83.2026Z" fill="#00DF9C"/>
<path d="M69.9402 80.9768C69.9402 82.2486 69.1087 83.2025 68 83.2025C66.8913 83.2025 66.0598 82.2486 66.0598 80.9768C66.0598 79.705 66.8913 78.7511 68 78.7511C69.0163 78.7511 69.9402 79.705 69.9402 80.9768Z" fill="#00DF9C"/>
<path d="M86.4783 80.9769C86.4783 82.2488 85.6468 83.2026 84.5381 83.2026C83.4294 83.2026 82.5979 82.2488 82.5979 80.9769C82.5979 79.7051 83.4294 78.7512 84.5381 78.7512C85.6468 78.7512 86.4783 79.7051 86.4783 80.9769Z" fill="#00DF9C"/>
<path d="M102.924 80.9769C102.924 82.2488 102.092 83.2026 100.984 83.2026C99.8751 83.2026 99.0435 82.2488 99.0435 80.9769C99.0435 79.7051 99.8751 78.7512 100.984 78.7512C102.092 78.7512 102.924 79.7051 102.924 80.9769Z" fill="#00DF9C"/>
<path d="M117.522 83.2026C118.593 83.2026 119.462 82.2062 119.462 80.977C119.462 79.7478 118.593 78.7513 117.522 78.7513C116.45 78.7513 115.582 79.7478 115.582 80.977C115.582 82.2062 116.45 83.2026 117.522 83.2026Z" fill="#00DF9C"/>
<path d="M136 80.9769C136 82.2488 135.169 83.2026 134.06 83.2026C132.951 83.2026 132.12 82.2488 132.12 80.9769C132.12 79.7051 132.951 78.7512 134.06 78.7512C135.076 78.7512 136 79.7051 136 80.9769Z" fill="#00DF9C"/>
<path d="M3.88045 96.7698C3.88045 98.0418 3.04892 98.9957 1.94022 98.9957C0.831524 98.9957 0 98.0418 0 96.7698C0 95.4979 0.831524 94.5439 1.94022 94.5439C3.04892 94.5439 3.88045 95.4979 3.88045 96.7698Z" fill="#00DF9C"/>
<path d="M20.4185 96.7698C20.4185 98.0418 19.587 98.9957 18.4783 98.9957C17.3696 98.9957 16.5381 98.0418 16.5381 96.7698C16.5381 95.4979 17.3696 94.5439 18.4783 94.5439C19.4946 94.5439 20.4185 95.4979 20.4185 96.7698Z" fill="#00DF9C"/>
<path d="M36.8641 96.7698C36.8641 98.0418 36.0326 98.9957 34.9239 98.9957C33.8152 98.9957 32.9837 98.0418 32.9837 96.7698C32.9837 95.4979 33.8152 94.5439 34.9239 94.5439C36.0326 94.5439 36.8641 95.4979 36.8641 96.7698Z" fill="#00DF9C"/>
<path d="M53.4022 96.7697C53.4022 98.0417 52.5707 98.9956 51.462 98.9956C50.3533 98.9956 49.5218 98.0417 49.5218 96.7697C49.5218 95.4978 50.3533 94.5438 51.462 94.5438C52.5707 94.5438 53.4022 95.4978 53.4022 96.7697Z" fill="#00DF9C"/>
<path d="M69.9402 96.7698C69.9402 98.0418 69.1087 98.9957 68 98.9957C66.8913 98.9957 66.0598 98.0418 66.0598 96.7698C66.0598 95.4979 66.8913 94.5439 68 94.5439C69.0163 94.5439 69.9402 95.4979 69.9402 96.7698Z" fill="#00DF9C"/>
<path d="M86.4783 96.7697C86.4783 98.0417 85.6468 98.9956 84.5381 98.9956C83.4294 98.9956 82.5979 98.0417 82.5979 96.7697C82.5979 95.4978 83.4294 94.5438 84.5381 94.5438C85.6468 94.5438 86.4783 95.4978 86.4783 96.7697Z" fill="#00DF9C"/>
<path d="M102.924 96.7697C102.924 98.0417 102.092 98.9956 100.984 98.9956C99.8751 98.9956 99.0435 98.0417 99.0435 96.7697C99.0435 95.4978 99.8751 94.5438 100.984 94.5438C102.092 94.5438 102.924 95.4978 102.924 96.7697Z" fill="#00DF9C"/>
<path d="M119.462 96.7698C119.462 98.0418 118.631 98.9957 117.522 98.9957C116.413 98.9957 115.582 98.0418 115.582 96.7698C115.582 95.4979 116.413 94.5439 117.522 94.5439C118.631 94.5439 119.462 95.4979 119.462 96.7698Z" fill="#00DF9C"/>
<path d="M136 96.7698C136 98.0418 135.169 98.9957 134.06 98.9957C132.951 98.9957 132.12 98.0418 132.12 96.7698C132.12 95.4979 132.951 94.5439 134.06 94.5439C135.076 94.5439 136 95.4979 136 96.7698Z" fill="#00DF9C"/>
<path d="M3.88043 112.456C3.88043 113.728 3.04891 114.682 1.94022 114.682C0.831521 114.682 0 113.728 0 112.456C0 111.184 0.831521 110.23 1.94022 110.23C3.04891 110.23 3.88043 111.29 3.88043 112.456Z" fill="#00DF9C"/>
<path d="M20.4185 112.456C20.4185 113.728 19.587 114.682 18.4783 114.682C17.3696 114.682 16.5381 113.728 16.5381 112.456C16.5381 111.184 17.3696 110.23 18.4783 110.23C19.4946 110.23 20.4185 111.29 20.4185 112.456Z" fill="#00DF9C"/>
<path d="M36.8642 112.456C36.8642 113.728 36.0326 114.682 34.9239 114.682C33.8153 114.682 32.9837 113.728 32.9837 112.456C32.9837 111.184 33.8153 110.23 34.9239 110.23C36.0326 110.23 36.8642 111.29 36.8642 112.456Z" fill="#00DF9C"/>
<path d="M53.4022 112.456C53.4022 113.728 52.5707 114.682 51.462 114.682C50.3533 114.682 49.5218 113.728 49.5218 112.456C49.5218 111.184 50.3533 110.23 51.462 110.23C52.5707 110.23 53.4022 111.29 53.4022 112.456Z" fill="#00DF9C"/>
<path d="M69.9402 112.456C69.9402 113.728 69.1087 114.682 68 114.682C66.8913 114.682 66.0598 113.728 66.0598 112.456C66.0598 111.184 66.8913 110.23 68 110.23C69.0163 110.23 69.9402 111.29 69.9402 112.456Z" fill="#00DF9C"/>
<path d="M86.4783 112.456C86.4783 113.728 85.6468 114.682 84.5381 114.682C83.4294 114.682 82.5979 113.728 82.5979 112.456C82.5979 111.184 83.4294 110.23 84.5381 110.23C85.6468 110.23 86.4783 111.29 86.4783 112.456Z" fill="#00DF9C"/>
<path d="M102.924 112.456C102.924 113.728 102.092 114.682 100.984 114.682C99.875 114.682 99.0435 113.728 99.0435 112.456C99.0435 111.184 99.875 110.23 100.984 110.23C102.092 110.23 102.924 111.29 102.924 112.456Z" fill="#00DF9C"/>
<path d="M119.462 112.456C119.462 113.728 118.631 114.682 117.522 114.682C116.413 114.682 115.582 113.728 115.582 112.456C115.582 111.184 116.413 110.23 117.522 110.23C118.631 110.23 119.462 111.29 119.462 112.456Z" fill="#00DF9C"/>
<path d="M136 112.456C136 113.728 135.169 114.682 134.06 114.682C132.951 114.682 132.12 113.728 132.12 112.456C132.12 111.184 132.951 110.23 134.06 110.23C135.076 110.23 136 111.29 136 112.456Z" fill="#00DF9C"/>
</svg>
