<svg viewBox="0 0 128 105" fill="none" xmlns="http://www.w3.org/2000/svg"><path d="M123.366 30.86c0 1.164.838 2.037 1.956 2.037 1.118 0 1.957-.873 1.957-2.037 0-1.165-.839-2.038-1.957-2.038s-1.956.97-1.956 2.038zm-15.421 0c0 1.164.838 2.037 1.956 2.037 1.118 0 1.957-.873 1.957-2.037 0-1.165-.839-2.038-1.957-2.038-1.024 0-1.956.97-1.956 2.038zm-15.421 0c0 1.164.839 2.037 1.957 2.037s1.956-.873 1.956-2.037c0-1.165-.838-2.038-1.956-2.038-1.118 0-1.957.97-1.957 2.038zm-15.42 0c0 1.164.838 2.037 1.956 2.037 1.118 0 1.956-.873 1.956-2.037 0-1.165-.838-2.038-1.956-2.038-1.118 0-1.956.97-1.956 2.038zm-15.421 0c0 1.164.838 2.037 1.956 2.037 1.118 0 1.957-.873 1.957-2.037 0-1.165-.839-2.038-1.957-2.038-1.025 0-1.956.97-1.956 2.038zm-15.421 0c0 1.164.839 2.037 1.957 2.037 1.117 0 1.956-.873 1.956-2.037 0-1.165-.838-2.038-1.956-2.038-1.118 0-1.957.97-1.957 2.038zm-15.421 0c0 1.164.839 2.037 1.957 2.037s1.956-.873 1.956-2.037c0-1.165-.838-2.038-1.956-2.038-1.118 0-1.957.97-1.957 2.038zm-15.421 0c0 1.164.84 2.037 1.957 2.037 1.118 0 1.957-.873 1.957-2.037 0-1.165-.839-2.038-1.957-2.038s-1.956.97-1.956 2.038zM0 30.86c0 1.164.838 2.037 1.956 2.037 1.118 0 1.957-.873 1.957-2.037 0-1.165-.839-2.038-1.957-2.038-1.024 0-1.956.97-1.956 2.038zm123.366 14.459c0 1.164.838 2.037 1.956 2.037 1.118 0 1.957-.873 1.957-2.037 0-1.165-.839-2.038-1.957-2.038s-1.956.873-1.956 2.038zm-15.421 0c0 1.164.838 2.037 1.956 2.037 1.118 0 1.957-.873 1.957-2.037 0-1.165-.839-2.038-1.957-2.038-1.024 0-1.956.873-1.956 2.038zm-15.421 0c0 1.164.839 2.037 1.957 2.037s1.956-.873 1.956-2.037c0-1.165-.838-2.038-1.956-2.038-1.118 0-1.957.873-1.957 2.038zm-15.42 0c0 1.164.838 2.037 1.956 2.037 1.118 0 1.956-.873 1.956-2.037 0-1.165-.838-2.038-1.956-2.038-1.118 0-1.956.873-1.956 2.038zm-15.421 0c0 1.164.838 2.037 1.956 2.037 1.118 0 1.957-.873 1.957-2.037 0-1.165-.839-2.038-1.957-2.038-1.025 0-1.956.873-1.956 2.038zm-15.421 0c0 1.164.839 2.037 1.957 2.037 1.117 0 1.956-.873 1.956-2.037 0-1.165-.838-2.038-1.956-2.038-1.118 0-1.957.873-1.957 2.038zm-15.421 0c0 1.164.839 2.037 1.957 2.037s1.956-.873 1.956-2.037c0-1.165-.838-2.038-1.956-2.038-1.118 0-1.957.873-1.957 2.038zm-15.421 0c0 1.164.84 2.037 1.957 2.037 1.118 0 1.957-.873 1.957-2.037 0-1.165-.839-2.038-1.957-2.038s-1.956.873-1.956 2.038zm-15.42 0c0 1.164.838 2.037 1.956 2.037 1.118 0 1.957-.873 1.957-2.037 0-1.165-.839-2.038-1.957-2.038C.932 43.28 0 44.154 0 45.319zM123.366 2.038c0 1.164.838 2.038 1.956 2.038 1.118 0 1.957-.874 1.957-2.038 0-1.165-.839-2.038-1.957-2.038s-1.956.873-1.956 2.038zm-15.421 0c0 1.164.838 2.038 1.956 2.038 1.118 0 1.957-.874 1.957-2.038 0-1.165-.839-2.038-1.957-2.038-1.024 0-1.956.873-1.956 2.038zm-15.421 0c0 1.164.839 2.038 1.957 2.038s1.956-.874 1.956-2.038C96.437.873 95.506 0 94.481 0c-1.118 0-1.957.873-1.957 2.038zm-15.42 0c0 1.164.838 2.038 1.956 2.038 1.118 0 1.956-.874 1.956-2.038C81.016.873 80.085 0 79.06 0s-1.956.873-1.956 2.038zm-15.421 0c0 1.164.838 2.038 1.956 2.038 1.118 0 1.957-.874 1.957-2.038C65.596.873 64.757 0 63.639 0c-1.025 0-1.956.873-1.956 2.038zm-15.421 0c0 1.164.839 2.038 1.957 2.038 1.117 0 1.956-.874 1.956-2.038C50.175.873 49.337 0 48.219 0c-1.118 0-1.957.873-1.957 2.038zm-15.421 0c0 1.164.839 2.038 1.957 2.038s1.956-.874 1.956-2.038C34.754.873 33.916 0 32.798 0 31.68 0 30.84.873 30.84 2.038zm-15.421 0c0 1.164.84 2.038 1.957 2.038 1.118 0 1.957-.874 1.957-2.038C19.334.873 18.495 0 17.377 0s-1.956.873-1.956 2.038zM0 2.038c0 1.164.838 2.038 1.956 2.038 1.118 0 1.957-.874 1.957-2.038C3.913.873 3.074 0 1.956 0 .932 0 0 .873 0 2.038zm123.366 14.459c0 1.165.838 2.038 1.956 2.038 1.118 0 1.957-.97 1.957-2.038 0-1.164-.839-2.038-1.957-2.038s-1.956.874-1.956 2.038zm-15.421 0c0 1.165.838 2.038 1.956 2.038 1.118 0 1.957-.873 1.957-2.038 0-1.164-.839-2.038-1.957-2.038-1.024 0-1.956.874-1.956 2.038zm-15.421 0c0 1.165.839 2.038 1.957 2.038s1.956-.873 1.956-2.038c0-1.164-.838-2.038-1.956-2.038-1.118 0-1.957.874-1.957 2.038zm-15.42 0c0 1.165.838 2.038 1.956 2.038 1.118 0 1.956-.873 1.956-2.038 0-1.164-.838-2.038-1.956-2.038-1.118 0-1.956.874-1.956 2.038zm-15.421 0c0 1.165.838 2.038 1.956 2.038 1.118 0 1.957-.873 1.957-2.038 0-1.164-.839-2.038-1.957-2.038-1.025 0-1.956.874-1.956 2.038zm-15.421 0c0 1.165.839 2.038 1.957 2.038 1.117 0 1.956-.873 1.956-2.038 0-1.164-.838-2.038-1.956-2.038-1.118 0-1.957.874-1.957 2.038zm-15.421 0c0 1.165.839 2.038 1.957 2.038s1.956-.873 1.956-2.038c0-1.164-.838-2.038-1.956-2.038-1.118 0-1.957.874-1.957 2.038zm-15.421 0c0 1.165.84 2.038 1.957 2.038 1.118 0 1.957-.873 1.957-2.038 0-1.164-.839-2.038-1.957-2.038s-1.956.874-1.956 2.038zm-15.42 0c0 1.165.838 2.038 1.956 2.038 1.118 0 1.957-.873 1.957-2.038 0-1.164-.839-2.038-1.957-2.038C.932 14.46 0 15.333 0 16.497zm123.366 43.184c0 1.165.838 2.038 1.956 2.038 1.118 0 1.957-.873 1.957-2.038 0-1.164-.839-2.038-1.957-2.038s-1.956.97-1.956 2.038zm-15.421 0c0 1.165.838 2.038 1.956 2.038 1.118 0 1.957-.873 1.957-2.038 0-1.164-.839-2.038-1.957-2.038-1.024 0-1.956.97-1.956 2.038zm-15.421 0c0 1.165.839 2.038 1.957 2.038s1.956-.873 1.956-2.038c0-1.164-.838-2.038-1.956-2.038-1.118 0-1.957.97-1.957 2.038zm-15.42 0c0 1.165.838 2.038 1.956 2.038 1.118 0 1.956-.873 1.956-2.038 0-1.164-.838-2.038-1.956-2.038-1.118 0-1.956.97-1.956 2.038zm-15.421 0c0 1.165.838 2.038 1.956 2.038 1.118 0 1.957-.873 1.957-2.038 0-1.164-.839-2.038-1.957-2.038-1.025 0-1.956.97-1.956 2.038zm-15.421 0c0 1.165.839 2.038 1.957 2.038 1.117 0 1.956-.873 1.956-2.038 0-1.164-.838-2.038-1.956-2.038-1.118 0-1.957.97-1.957 2.038zm-15.421 0c0 1.165.839 2.038 1.957 2.038s1.956-.873 1.956-2.038c0-1.164-.838-2.038-1.956-2.038-1.118 0-1.957.97-1.957 2.038zm-15.421 0c0 1.165.84 2.038 1.957 2.038 1.118 0 1.957-.873 1.957-2.038 0-1.164-.839-2.038-1.957-2.038s-1.956.97-1.956 2.038zm-15.42 0c0 1.165.838 2.038 1.956 2.038 1.118 0 1.957-.873 1.957-2.038 0-1.164-.839-2.038-1.957-2.038-1.024 0-1.956.97-1.956 2.038zM123.366 74.14c0 1.165.838 2.038 1.956 2.038 1.118 0 1.957-.873 1.957-2.038 0-1.164-.839-2.038-1.957-2.038s-1.956.874-1.956 2.038zm-15.421 0c0 1.165.838 2.038 1.956 2.038 1.118 0 1.957-.873 1.957-2.038 0-1.164-.839-2.038-1.957-2.038-1.024 0-1.956.874-1.956 2.038zm-15.421 0c0 1.165.839 2.038 1.957 2.038s1.956-.873 1.956-2.038c0-1.164-.838-2.038-1.956-2.038-1.118 0-1.957.874-1.957 2.038zM79.06 76.178c-1.08 0-1.956-.912-1.956-2.038 0-1.125.876-2.038 1.956-2.038s1.956.913 1.956 2.038c0 1.126-.876 2.038-1.956 2.038zM61.683 74.14c0 1.165.838 2.038 1.956 2.038 1.118 0 1.957-.873 1.957-2.038 0-1.164-.839-2.038-1.957-2.038-1.025 0-1.956.874-1.956 2.038zm-15.421 0c0 1.165.839 2.038 1.957 2.038 1.117 0 1.956-.873 1.956-2.038 0-1.164-.838-2.038-1.956-2.038-1.118 0-1.957.874-1.957 2.038zm-15.421 0c0 1.165.839 2.038 1.957 2.038s1.956-.873 1.956-2.038c0-1.164-.838-2.038-1.956-2.038-1.118 0-1.957.874-1.957 2.038zm-13.464 2.038c-1.08 0-1.956-.912-1.956-2.038 0-1.125.876-2.038 1.956-2.038s1.957.913 1.957 2.038c0 1.126-.876 2.038-1.957 2.038zM0 74.14c0 1.165.838 2.038 1.956 2.038 1.118 0 1.957-.873 1.957-2.038 0-1.164-.839-2.038-1.957-2.038C.932 72.102 0 72.976 0 74.14zM123.366 88.6c0 1.165.838 2.038 1.956 2.038 1.118 0 1.957-.874 1.957-2.038 0-1.165-.839-2.038-1.957-2.038s-1.956.873-1.956 2.038zm-15.421 0c0 1.164.838 2.038 1.956 2.038 1.118 0 1.957-.874 1.957-2.038 0-1.165-.839-2.038-1.957-2.038-1.024 0-1.956.873-1.956 2.038zm-15.421 0c0 1.164.839 2.038 1.957 2.038s1.956-.874 1.956-2.038c0-1.165-.838-2.038-1.956-2.038-1.118 0-1.957.873-1.957 2.038zm-15.42 0c0 1.164.838 2.038 1.956 2.038 1.118 0 1.956-.874 1.956-2.038 0-1.165-.838-2.038-1.956-2.038-1.118 0-1.956.873-1.956 2.038zm-15.421 0c0 1.164.838 2.038 1.956 2.038 1.118 0 1.957-.874 1.957-2.038 0-1.165-.839-2.038-1.957-2.038-1.025 0-1.956.873-1.956 2.038zm-15.421 0c0 1.164.839 2.038 1.957 2.038 1.117 0 1.956-.874 1.956-2.038 0-1.165-.838-2.038-1.956-2.038-1.118 0-1.957.873-1.957 2.038zm-15.421 0c0 1.164.839 2.038 1.957 2.038s1.956-.874 1.956-2.038c0-1.165-.838-2.038-1.956-2.038-1.118 0-1.957.873-1.957 2.038zm-15.421 0c0 1.164.84 2.038 1.957 2.038 1.118 0 1.957-.874 1.957-2.038 0-1.165-.839-2.038-1.957-2.038s-1.956.873-1.956 2.038zM0 88.6c0 1.164.838 2.038 1.956 2.038 1.118 0 1.957-.874 1.957-2.038 0-1.165-.839-2.038-1.957-2.038C.932 86.562 0 87.435 0 88.6zm123.366 14.362c0 1.165.838 2.038 1.956 2.038 1.118 0 1.957-.873 1.957-2.038 0-1.164-.839-2.038-1.957-2.038s-1.956.971-1.956 2.038zm-15.421 0c0 1.165.838 2.038 1.956 2.038 1.118 0 1.957-.873 1.957-2.038 0-1.164-.839-2.038-1.957-2.038-1.024 0-1.956.971-1.956 2.038zm-15.421 0c0 1.165.839 2.038 1.957 2.038s1.956-.873 1.956-2.038c0-1.164-.838-2.038-1.956-2.038-1.118 0-1.957.971-1.957 2.038zm-15.42 0c0 1.165.838 2.038 1.956 2.038 1.118 0 1.956-.873 1.956-2.038 0-1.164-.838-2.038-1.956-2.038-1.118 0-1.956.971-1.956 2.038zm-15.421 0c0 1.165.838 2.038 1.956 2.038 1.118 0 1.957-.873 1.957-2.038 0-1.164-.839-2.038-1.957-2.038-1.025 0-1.956.971-1.956 2.038zm-15.421 0c0 1.165.839 2.038 1.957 2.038 1.117 0 1.956-.873 1.956-2.038 0-1.164-.838-2.038-1.956-2.038-1.118 0-1.957.971-1.957 2.038zm-15.421 0c0 1.165.839 2.038 1.957 2.038s1.956-.873 1.956-2.038c0-1.164-.838-2.038-1.956-2.038-1.118 0-1.957.971-1.957 2.038zm-15.421 0c0 1.165.84 2.038 1.957 2.038 1.118 0 1.957-.873 1.957-2.038 0-1.164-.839-2.038-1.957-2.038s-1.956.971-1.956 2.038zm-15.42 0C0 104.127.838 105 1.956 105c1.118 0 1.957-.873 1.957-2.038 0-1.164-.839-2.038-1.957-2.038-1.024 0-1.956.971-1.956 2.038z" fill="#fff" fill-opacity=".6"/></svg>