<svg fill="#1a643f71" width="15" height="15" viewBox="0 0 32 32" xmlns="http://www.w3.org/2000/svg"><path d="M14.155 29.125a13.177 13.177 0 01-3.698-1.081l.082.034a.75.75 0 00-.622 1.366l.005.002a14.32 14.32 0 003.947 1.155l.079.009a.61.61 0 00.099.008h.005a.75.75 0 00.106-1.492h-.004zM2.75 16.077a.75.75 0 00-.75-.746h-.004a.75.75 0 00-.746.75v.004c.007 1.48.231 2.906.643 4.25l-.027-.104a.752.752 0 00.719.535h.002a.715.715 0 00.218-.033l-.005.001a.753.753 0 00.502-.939l.001.005a12.917 12.917 0 01-.553-3.721v-.003zm-.418-3.215c.061.019.13.029.203.029h.004a.75.75 0 00.719-.539l.001-.005c.38-1.306.906-2.446 1.575-3.486l-.031.052a.75.75 0 00-1.264-.807l-.002.003a14.408 14.408 0 00-1.693 3.723l-.026.104a.75.75 0 00.509.926l.005.001zm19.059-8.971a13.336 13.336 0 013.204 2.023l-.018-.015a.75.75 0 10.974-1.141l-.001-.001a14.72 14.72 0 00-3.456-2.197l-.092-.038a.749.749 0 10-.613 1.367l.005.002zM6.753 6.237h.002a.747.747 0 00.494-.187l-.001.001a13.207 13.207 0 013.071-2.028l.08-.034a.751.751 0 10-.639-1.358l.005-.002a14.808 14.808 0 00-3.523 2.309l.016-.014a.75.75 0 00.495 1.313zm-1.868 16.98a.751.751 0 00-1.379.408c0 .152.045.293.123.411l-.002-.003a14.935 14.935 0 002.741 3.138l.019.016a.75.75 0 00.979-1.135l-.001-.001a13.388 13.388 0 01-2.45-2.784l-.031-.05zm24.51-10.561a.724.724 0 00.224-.035l-.005.001a.751.751 0 00.497-.942l.001.005a14.731 14.731 0 00-1.819-3.847l.034.054a.75.75 0 10-1.252.829l-.002-.003a12.99 12.99 0 011.58 3.313l.025.093a.75.75 0 00.716.53zM30 15.168a.826.826 0 00-.75.821V16v-.001.018c0 1.322-.194 2.598-.555 3.802l.024-.093a.754.754 0 00.504.93l.005.001a.753.753 0 00.93-.505l.001-.005c.374-1.239.59-2.664.59-4.139v-.01.001-.163a.685.685 0 00-.753-.669h.003zM18.611 2.222a.749.749 0 00-.641-.841h-.004a15.157 15.157 0 00-4.272.047l.084-.011a.75.75 0 10.229 1.482l-.004.001a13.716 13.716 0 013.836-.026l-.07-.008a.761.761 0 00.843-.641l.001-.004zm2.92 25.823a12.885 12.885 0 01-3.538 1.059l-.073.009a.75.75 0 00.108 1.492h.006a.762.762 0 00.108-.008h-.004c1.5-.225 2.852-.641 4.109-1.228l-.091.038a.75.75 0 10-.629-1.361l.005-.002zm6.66-5.121a.746.746 0 00-1.033.224l-.002.003a13.386 13.386 0 01-2.447 2.832l-.016.014a.75.75 0 00.985 1.131l-.001.001a14.78 14.78 0 002.705-3.113l.035-.057a.746.746 0 00-.224-1.033l-.003-.002z"/></svg>