<svg viewBox="0 0 136 115" fill="none" xmlns="http://www.w3.org/2000/svg"><path d="M3.88 33.705c0 1.272-.831 2.226-1.94 2.226-1.108 0-1.94-.954-1.94-2.226s.832-2.226 1.94-2.226c1.109 0 1.94 1.06 1.94 2.226zm16.539 0c0 1.272-.832 2.226-1.94 2.226-1.11 0-1.94-.954-1.94-2.226s.83-2.226 1.94-2.226c1.016 0 1.94 1.06 1.94 2.226zm16.445 0c0 1.272-.831 2.226-1.94 2.226s-1.94-.954-1.94-2.226.831-2.226 1.94-2.226 1.94 1.06 1.94 2.226zm16.538 0c0 1.272-.831 2.226-1.94 2.226s-1.94-.954-1.94-2.226.831-2.226 1.94-2.226 1.94 1.06 1.94 2.226zm16.538 0c0 1.272-.831 2.226-1.94 2.226s-1.94-.954-1.94-2.226.831-2.226 1.94-2.226c1.016 0 1.94 1.06 1.94 2.226zm16.538 0c0 1.272-.831 2.226-1.94 2.226s-1.94-.954-1.94-2.226.831-2.226 1.94-2.226 1.94 1.06 1.94 2.226zm16.446 0c0 1.272-.832 2.226-1.94 2.226-1.109 0-1.94-.954-1.94-2.226s.831-2.226 1.94-2.226c1.108 0 1.94 1.06 1.94 2.226zm16.538 0c0 1.272-.831 2.226-1.94 2.226s-1.94-.954-1.94-2.226.831-2.226 1.94-2.226 1.94 1.06 1.94 2.226zm16.538 0c0 1.272-.831 2.226-1.94 2.226s-1.94-.954-1.94-2.226.831-2.226 1.94-2.226c1.016 0 1.94 1.06 1.94 2.226zM3.88 49.498c0 1.272-.831 2.226-1.94 2.226-1.108 0-1.94-.954-1.94-2.226s.832-2.226 1.94-2.226c1.109 0 1.94.954 1.94 2.226zm16.539 0c0 1.272-.832 2.226-1.94 2.226-1.11 0-1.94-.954-1.94-2.226s.83-2.226 1.94-2.226c1.016 0 1.94.954 1.94 2.226zm16.445 0c0 1.272-.831 2.226-1.94 2.226s-1.94-.954-1.94-2.226.831-2.226 1.94-2.226 1.94.954 1.94 2.226zm16.538 0c0 1.272-.831 2.226-1.94 2.226s-1.94-.954-1.94-2.226.831-2.226 1.94-2.226 1.94.954 1.94 2.226zm16.538 0c0 1.272-.831 2.226-1.94 2.226s-1.94-.954-1.94-2.226.831-2.226 1.94-2.226c1.016 0 1.94.954 1.94 2.226zm16.538 0c0 1.272-.831 2.226-1.94 2.226s-1.94-.954-1.94-2.226.831-2.226 1.94-2.226 1.94.954 1.94 2.226zm16.446 0c0 1.272-.832 2.226-1.94 2.226-1.109 0-1.94-.954-1.94-2.226s.831-2.226 1.94-2.226c1.108 0 1.94.954 1.94 2.226zm16.538 0c0 1.272-.831 2.226-1.94 2.226s-1.94-.954-1.94-2.226.831-2.226 1.94-2.226 1.94.954 1.94 2.226zm16.538 0c0 1.272-.831 2.226-1.94 2.226s-1.94-.954-1.94-2.226.831-2.226 1.94-2.226c1.016 0 1.94.954 1.94 2.226zM3.88 2.226c0 1.272-.831 2.226-1.94 2.226C.832 4.452 0 3.498 0 2.226S.832 0 1.94 0c1.11 0 1.94.954 1.94 2.226zm16.539 0c0 1.272-.832 2.226-1.94 2.226-1.11 0-1.94-.954-1.94-2.226S17.368 0 18.478 0c1.016 0 1.94.954 1.94 2.226zm16.445 0c0 1.272-.831 2.226-1.94 2.226s-1.94-.954-1.94-2.226S33.908 0 34.924 0c1.109 0 1.94.954 1.94 2.226zm16.538 0c0 1.272-.831 2.226-1.94 2.226s-1.94-.954-1.94-2.226S50.446 0 51.462 0s1.94.954 1.94 2.226zm16.538 0c0 1.272-.831 2.226-1.94 2.226s-1.94-.954-1.94-2.226S66.89 0 68 0c1.016 0 1.94.954 1.94 2.226zm16.538 0c0 1.272-.831 2.226-1.94 2.226s-1.94-.954-1.94-2.226S83.429 0 84.538 0s1.94.954 1.94 2.226zm16.446 0c0 1.272-.832 2.225-1.94 2.225-1.109 0-1.94-.953-1.94-2.225 0-1.272.831-2.226 1.94-2.226 1.108 0 1.94.954 1.94 2.226zm16.538 0c0 1.272-.831 2.226-1.94 2.226s-1.94-.954-1.94-2.226S116.413 0 117.522 0s1.94.954 1.94 2.226zm16.538 0c0 1.272-.831 2.226-1.94 2.226s-1.94-.954-1.94-2.226S132.951 0 134.06 0c1.016 0 1.94.954 1.94 2.226zM3.88 18.018c0 1.272-.831 2.226-1.94 2.226-1.108 0-1.94-1.06-1.94-2.226 0-1.272.832-2.226 1.94-2.226 1.109 0 1.94.954 1.94 2.226zm16.539 0c0 1.272-.832 2.226-1.94 2.226-1.11 0-1.94-.954-1.94-2.226s.83-2.226 1.94-2.226c1.016 0 1.94.954 1.94 2.226zm16.445 0c0 1.272-.831 2.226-1.94 2.226s-1.94-.954-1.94-2.226.831-2.226 1.94-2.226 1.94.954 1.94 2.226zm16.538 0c0 1.272-.831 2.226-1.94 2.226s-1.94-.954-1.94-2.226.831-2.226 1.94-2.226 1.94.954 1.94 2.226zm16.538 0c0 1.272-.831 2.226-1.94 2.226s-1.94-.954-1.94-2.226.831-2.226 1.94-2.226c1.016 0 1.94.954 1.94 2.226zm16.538 0c0 1.272-.831 2.226-1.94 2.226s-1.94-.954-1.94-2.226.831-2.226 1.94-2.226 1.94.954 1.94 2.226zm16.446 0c0 1.272-.832 2.226-1.94 2.226-1.109 0-1.94-.954-1.94-2.226 0-1.271.831-2.225 1.94-2.225 1.108 0 1.94.954 1.94 2.226zm16.538 0c0 1.272-.831 2.226-1.94 2.226s-1.94-.954-1.94-2.226.831-2.226 1.94-2.226 1.94.954 1.94 2.226zm16.538 0c0 1.272-.831 2.226-1.94 2.226s-1.94-.954-1.94-2.226.831-2.226 1.94-2.226c1.016 0 1.94.954 1.94 2.226zM3.88 65.184c0 1.272-.831 2.226-1.94 2.226-1.108 0-1.94-.954-1.94-2.226 0-1.271.832-2.225 1.94-2.225 1.109 0 1.94 1.06 1.94 2.225zm16.539 0c0 1.272-.832 2.226-1.94 2.226-1.11 0-1.941-.954-1.941-2.226 0-1.271.831-2.225 1.94-2.225 1.017 0 1.94 1.06 1.94 2.225zm16.445 0c0 1.272-.831 2.226-1.94 2.226s-1.94-.954-1.94-2.225c0-1.272.831-2.226 1.94-2.226s1.94 1.06 1.94 2.225zm16.538 0c0 1.272-.831 2.226-1.94 2.226s-1.94-.954-1.94-2.226c0-1.271.831-2.225 1.94-2.225s1.94 1.06 1.94 2.225zm16.538 0c0 1.272-.831 2.226-1.94 2.226s-1.94-.954-1.94-2.226c0-1.271.831-2.225 1.94-2.225 1.016 0 1.94 1.06 1.94 2.225zm16.538 0c0 1.272-.831 2.226-1.94 2.226s-1.94-.954-1.94-2.225c0-1.272.831-2.226 1.94-2.226s1.94 1.06 1.94 2.225zm16.446 0c0 1.272-.832 2.226-1.94 2.226-1.109 0-1.94-.954-1.94-2.225 0-1.272.831-2.226 1.94-2.226 1.108 0 1.94 1.06 1.94 2.225zm16.538 0c0 1.272-.831 2.226-1.94 2.226s-1.94-.954-1.94-2.226c0-1.271.831-2.225 1.94-2.225s1.94 1.06 1.94 2.225zm16.538 0c0 1.272-.831 2.226-1.94 2.226s-1.94-.954-1.94-2.226c0-1.271.831-2.225 1.94-2.225 1.016 0 1.94 1.06 1.94 2.225zM3.88 80.977c0 1.272-.831 2.226-1.94 2.226-1.108 0-1.94-.954-1.94-2.226s.832-2.226 1.94-2.226c1.109 0 1.94.954 1.94 2.226zm16.539 0c0 1.272-.832 2.226-1.94 2.226-1.11 0-1.94-.954-1.94-2.226s.83-2.226 1.94-2.226c1.016 0 1.94.954 1.94 2.226zm16.445 0c0 1.272-.831 2.226-1.94 2.226s-1.94-.954-1.94-2.226.831-2.226 1.94-2.226 1.94.954 1.94 2.226zm14.598 2.226c1.072 0 1.94-.997 1.94-2.226 0-1.23-.868-2.226-1.94-2.226s-1.94.997-1.94 2.226c0 1.23.869 2.226 1.94 2.226zm18.478-2.226c0 1.272-.831 2.225-1.94 2.225s-1.94-.953-1.94-2.225c0-1.272.831-2.226 1.94-2.226 1.016 0 1.94.954 1.94 2.226zm16.538 0c0 1.272-.831 2.226-1.94 2.226s-1.94-.954-1.94-2.226.831-2.226 1.94-2.226 1.94.954 1.94 2.226zm16.446 0c0 1.272-.832 2.226-1.94 2.226-1.109 0-1.94-.954-1.94-2.226s.831-2.226 1.94-2.226c1.108 0 1.94.954 1.94 2.226zm14.598 2.226c1.071 0 1.94-.997 1.94-2.226 0-1.23-.869-2.226-1.94-2.226-1.072 0-1.94.997-1.94 2.226 0 1.23.868 2.226 1.94 2.226zM136 80.977c0 1.272-.831 2.226-1.94 2.226s-1.94-.954-1.94-2.226.831-2.226 1.94-2.226c1.016 0 1.94.954 1.94 2.226zM3.88 96.77c0 1.272-.831 2.226-1.94 2.226-1.108 0-1.94-.954-1.94-2.226s.832-2.226 1.94-2.226c1.109 0 1.94.954 1.94 2.226zm16.539 0c0 1.272-.832 2.226-1.94 2.226-1.11 0-1.94-.954-1.94-2.226s.83-2.226 1.94-2.226c1.016 0 1.94.954 1.94 2.226zm16.445 0c0 1.272-.831 2.226-1.94 2.226s-1.94-.954-1.94-2.226.831-2.226 1.94-2.226 1.94.954 1.94 2.226zm16.538 0c0 1.272-.831 2.226-1.94 2.226s-1.94-.954-1.94-2.226.831-2.226 1.94-2.226 1.94.954 1.94 2.226zm16.538 0c0 1.272-.831 2.226-1.94 2.226s-1.94-.954-1.94-2.226.831-2.226 1.94-2.226c1.016 0 1.94.954 1.94 2.226zm16.538 0c0 1.272-.831 2.226-1.94 2.226s-1.94-.954-1.94-2.226.831-2.226 1.94-2.226 1.94.954 1.94 2.226zm16.446 0c0 1.272-.832 2.226-1.94 2.226-1.109 0-1.94-.954-1.94-2.226s.831-2.226 1.94-2.226c1.108 0 1.94.954 1.94 2.226zm16.538 0c0 1.272-.831 2.226-1.94 2.226s-1.94-.954-1.94-2.226.831-2.226 1.94-2.226 1.94.954 1.94 2.226zm16.538 0c0 1.272-.831 2.226-1.94 2.226s-1.94-.954-1.94-2.226.831-2.226 1.94-2.226c1.016 0 1.94.954 1.94 2.226zM3.88 112.456c0 1.272-.831 2.226-1.94 2.226-1.108 0-1.94-.954-1.94-2.226s.832-2.226 1.94-2.226c1.109 0 1.94 1.06 1.94 2.226zm16.539 0c0 1.272-.832 2.226-1.94 2.226-1.11 0-1.94-.954-1.94-2.226s.83-2.226 1.94-2.226c1.016 0 1.94 1.06 1.94 2.226zm16.445 0c0 1.272-.831 2.226-1.94 2.226s-1.94-.954-1.94-2.226.831-2.226 1.94-2.226 1.94 1.06 1.94 2.226zm16.538 0c0 1.272-.831 2.226-1.94 2.226s-1.94-.954-1.94-2.226.831-2.226 1.94-2.226 1.94 1.06 1.94 2.226zm16.538 0c0 1.272-.831 2.226-1.94 2.226s-1.94-.954-1.94-2.226.831-2.226 1.94-2.226c1.016 0 1.94 1.06 1.94 2.226zm16.538 0c0 1.272-.831 2.226-1.94 2.226s-1.94-.954-1.94-2.226.831-2.226 1.94-2.226 1.94 1.06 1.94 2.226zm16.446 0c0 1.272-.832 2.226-1.94 2.226-1.109 0-1.94-.954-1.94-2.226s.831-2.226 1.94-2.226c1.108 0 1.94 1.06 1.94 2.226zm16.538 0c0 1.272-.831 2.226-1.94 2.226s-1.94-.954-1.94-2.226.831-2.226 1.94-2.226 1.94 1.06 1.94 2.226zm16.538 0c0 1.272-.831 2.226-1.94 2.226s-1.94-.954-1.94-2.226.831-2.226 1.94-2.226c1.016 0 1.94 1.06 1.94 2.226z" fill="#00DF9C"/></svg>