<svg version="1.0" xmlns="http://www.w3.org/2000/svg" width="128" height="128" viewBox="0 0 1280 1280"><path d="M1087.5 9.5c-7.3 3.9-10.1 9.3-9.3 17.7.9 8.4 6.5 13.9 15.1 14.6 10.2.8 17.7-5.3 18.5-15.2.8-10.4-5.4-17.7-15.6-18.3-3.9-.3-6.6.1-8.7 1.2zm-416 6.4c-11 5-15.4 17.8-9.9 28.9 6.6 13.4 24 15.8 34.2 4.8 7.8-8.5 8.1-19.4.9-28.2-5.8-7-16.7-9.4-25.2-5.5zM281 22.6c-7.9 3.4-12.4 10.6-12.5 19.9-.1 21.6 29.1 29.7 40 11 6.5-11 2.6-24.8-8.7-30.6-4.5-2.3-13.8-2.5-18.8-.3zm294 .6c-15.7 8.1-15.7 30 0 38.7 9.2 5.1 20.8 2.3 27.6-6.6 10.7-14.1.3-34.3-17.6-34.3-3.8 0-7 .7-10 2.2zM433.6 27c-8.5 7.5-6.5 19.6 3.9 23.6 5.9 2.2 11 .8 15.4-4.1 2.5-2.9 3.1-4.5 3.1-8.1 0-8.8-5.5-14.4-14.2-14.4-3.8 0-5.4.6-8.2 3zM149 28.1c-1.4.6-3.8 2.2-5.3 3.7-8.8 8.3-8.8 21.1 0 29.4 7.8 7.4 22.1 6.2 28.6-2.4 10.1-13.4 1-31.9-15.5-31.7-2.9 0-6.4.5-7.8 1zm1083.2 4c-13.5 6.7-13.3 26.6.3 33.6 3.8 2 12.2 2 16.1 0 3.9-2 9.2-8 10-11.3.4-1.4.4-4.9.2-7.9-1.1-12.8-14.8-20.2-26.6-14.4zM933.9 43.4c-21.1 5.9-37 22.1-42.5 43.6-2.2 8.7-1.5 24 1.6 32.7 6.3 18.1 22.4 33 40.6 37.7 7.8 2 22.2 2.1 29.8.1 8.2-2.1 18.9-8 25.2-13.7 7.1-6.6 12.2-14.5 15.7-24.8 5.5-15.7 3.7-32.9-4.9-48.5-6.4-11.5-22.2-23.4-36-27-7-1.8-23-1.9-29.5-.1zm116.6.5c-12 7.3-13.4 21.8-3.1 30.9 8.8 7.7 23.4 4.4 28.6-6.3 4.3-8.9.6-20.1-8-24.5-5.1-2.6-13.4-2.7-17.5-.1zm-983.1 1C57.1 47.5 47.5 55.7 42.6 66c-2.8 5.8-3.1 7.5-3.1 15.5s.3 9.7 3.1 15.5c3.8 8 10.6 15 18.2 18.7 5 2.4 6.8 2.7 15.7 2.8 9.1 0 10.6-.3 16-2.9 7.6-3.8 14.3-10.5 18.1-18.1 2.6-5.4 2.9-7 2.9-16s-.3-10.6-2.9-16c-3.8-7.7-10.6-14.4-18.1-18-4.8-2.3-7.7-2.9-14-3.1-4.4-.2-9.4.1-11.1.5zm284.3 19.8c-11.5 6.8-14.8 20.4-7.7 31.6 8 12.6 25.7 13.8 35.7 2.3 8.8-9.9 6.5-25.8-4.9-33.3-3.3-2.3-5.5-2.8-11.2-3.1-6.3-.3-7.6 0-11.9 2.5zm451.3.7c-10.4 3-17.6 9-22.2 18.4-3 6-3.3 7.5-3.3 15.7 0 7.6.4 9.8 2.6 14.5 3.5 7.5 9.8 13.6 17.7 17.3 5.5 2.6 7.8 3.1 14.2 3.1 6.4 0 8.7-.5 14.2-3.1 8.1-3.8 14.2-9.7 17.7-17.2 2.2-4.8 2.6-7 2.6-14.6 0-8.2-.3-9.7-3.3-15.7-5.6-11.5-16.2-18.5-28.9-19.3-4-.3-8.7.1-11.3.9zM269.7 85c-10.8 2.8-21.2 11.3-26.3 21.5-2.6 5.5-2.9 6.9-2.9 16.5 0 9.3.3 11.2 2.6 16.1 11.2 23.9 42.2 30.3 61.4 12.8 20.3-18.6 15.8-51.3-8.9-63.4-5.9-2.9-8.7-3.7-14.7-4-4.1-.2-9.1 0-11.2.5zm321.3.6c-14.5 3.9-24.7 14.4-28.6 29.4-4.5 17.7 4.7 37 21.5 45.3 6.1 3 7.2 3.2 17.1 3.2 9.7 0 11-.2 17-3.1 8.3-3.9 15.5-11.1 19.4-19.4 2.9-6 3.1-7.3 3.1-17 0-9.5-.3-11.1-2.8-16.2-5.7-11.6-16.4-20.2-28.5-22.7-6.9-1.4-11.4-1.3-18.2.5zm581.5 3c-14.4 7.9-15.5 26.5-2 34.9 3.9 2.4 5.8 3 10.4 2.9 6.6-.1 10.6-2 14.9-6.8 7.7-8.8 5.8-22.8-3.9-29.3-5.2-3.4-14.7-4.2-19.4-1.7zm-687.3 11.7C468 106.6 466 130.1 482 139c10.7 5.9 24.7 1.1 29.5-10.2 6.9-16.7-9.6-34.5-26.3-28.5zM169 113c-11.3 3.8-18.6 16.4-16.2 27.9 3.8 18.3 24.4 26.7 39.1 16.1 13-9.4 14.4-26.8 3.2-38-3.5-3.5-6.3-5.3-10.2-6.4-6.7-2-9.1-2-15.9.4zm546.5 6.4c-9 4.1-13.5 11.4-13.5 21.8 0 17.5 18.3 28.8 33.9 20.9 11.8-6 16.4-19.6 10.7-31.6-2.8-6-5.6-8.7-11.6-11.4-6.1-2.8-13.2-2.7-19.5.3zm360.2-1.4c-6.4 1.7-13.8 6-18.8 11.1-19.4 20-13.5 52.1 11.9 64.6 5.2 2.6 6.7 2.8 16.7 2.8 9.8 0 11.6-.3 16.5-2.6 16.4-7.7 26.3-26.2 23.2-43.1-2.5-13.4-10.8-24.4-22.7-30-5.3-2.4-8.2-3.1-14.8-3.4-4.5-.2-9.9.1-12 .6zm178.9 22.2c-11.9 2.5-17.2 16.3-10.3 26.7 6.4 9.7 22 9.7 28.4 0 8.8-13.4-2.4-30-18.1-26.7zM833 159c-27.8 10.2-34.8 45.1-13 65.3 11.8 11 27.9 13.4 42.6 6.5 6.2-2.8 15.3-11.9 18.2-18 9.5-19.6 1.2-42.8-18.6-52.1-8.7-4.1-20.7-4.8-29.2-1.7zM50 171.6c-16.1 7-18.2 29.3-3.7 39.1 15 10.1 34.7-.4 34.7-18.4-.1-13.2-9.2-22.4-22.2-22.3-2.9.1-6.9.8-8.8 1.6zm362 6.6c-20.4 12.4-11.7 43.8 12.2 43.8 6 0 14-3.3 17.5-7.1 8.1-8.8 8.3-22.9.4-32-4.7-5.6-10-7.9-18.1-7.9-5.7 0-7.3.4-12 3.2zm747.5 2.1c-2.2 2.2-3.5 4.5-3.5 6.1 0 10.6 13.1 14.4 18.4 5.4 3.5-5.9-.4-13.3-7.7-14.5-3.2-.5-4.1-.1-7.2 3zm-585.1 28.1c-5.9 1.9-9.8 5.2-12.9 10.8-6.4 11.6-1.4 26.2 10.7 31.2 7.7 3.3 18.2 1.4 24.1-4.2 12.5-11.9 7.8-32.8-8.4-37.6-6.2-1.9-8-1.9-13.5-.2zm107.8-.7c-3.5.7-8.9 6.4-10.1 10.9-2.5 9.3 4.3 18.4 13.7 18.4 9 0 15.3-5.9 15.4-14.4.1-5.9-2.7-10.6-8.2-13.4-4.3-2.1-6.1-2.4-10.8-1.5zM105.8 212c-7.7 4.2-12.9 14.5-11.3 22.2 2.4 11.2 10.4 17.8 21.5 17.8 8.8 0 15.4-4.3 19.1-12.5 4.1-8.8.8-20.5-7.3-26.1-5.5-3.8-16.3-4.5-22-1.4zm823.5 1c-21.1 12.1-12.4 44 11.9 44 17.5 0 28.8-17.8 21.4-33.5-4.1-9-11.4-13.5-21.8-13.5-5.2 0-7.3.6-11.5 3zm257.5-.5c-11.8 6.2-16.9 21.4-11.1 33 2.2 4.3 7.2 9.4 11.8 11.8 5.6 3 16.4 3 22.1 0 19.1-10.1 18.4-36.5-1.1-45.4-6-2.8-15.7-2.5-21.7.6zM276 219.1c-7.6 3.4-12 9-13.5 17.2-2.3 12.3 8.8 25.6 21.4 25.7 13.6 0 23.1-9.1 23.1-22.4 0-16.3-16.4-27.1-31-20.5zm58.3 12.9c-11.5 7-6.3 25 7.2 25 7.6 0 13.5-5.9 13.5-13.5 0-10.6-11.6-17.1-20.7-11.5zM460 243.2c-16.5 4.7-19.3 27.7-4.4 36.4 15.4 9 34-5.4 29.4-22.7-1.5-5.6-8-12.3-13.5-13.8-4.7-1.3-6.8-1.3-11.5.1zm644.4 9.8c-12.1 1.7-24.8 11.3-30.2 22.7-2.4 5.2-2.7 6.9-2.7 16.8 0 9.8.3 11.6 2.7 16.7 7.4 15.9 25.3 25.5 42.3 22.8 21.6-3.5 37.4-24.8 33.6-45.5-4.2-22.4-23.5-36.5-45.7-33.5zm-925.8 5.2c-5.7 1.5-12 8.2-13.5 14.3-2.7 10.8 4 22.1 14.5 24.3 13.3 2.9 24.7-6.1 24.7-19.3 0-9.2-5.9-17-14.8-19.4-4.6-1.3-5.6-1.3-10.9.1zm1079.5 10c-14.3 2.5-21.7 19.8-13.6 31.9 7.4 11.2 23.2 13 32.5 3.7l3-3v-12.2c0-12 0-12.3-2.7-14.8-5.5-5.1-11.7-6.9-19.2-5.6zM93.2 288.1c-10.9 1.8-21 9.7-25.8 20.2-2.3 5.1-2.8 7.6-2.9 14.2 0 7.1.4 8.8 3.3 14.7 4 8.2 11.1 14.9 19 17.8 8.1 3.1 20.5 2.5 28-1.4 11-5.6 18.1-16.2 19-28.5 1.6-22.9-17.8-40.7-40.6-37zm1092.5.2c-8.8 2.8-14 12-11.8 20.7 2.3 8.6 9.1 13.5 18.2 12.8 10.3-.7 16.5-8 15.7-18.4-.9-11.2-11.5-18.5-22.1-15.1zm-564.4 31.6c-10.4 3.8-18.9 11.6-24.1 22.1-2.5 5-2.7 6.5-2.7 17s.2 12 2.8 17.1c5.3 10.8 14.4 18.8 25.6 22.4 8.4 2.7 20.7 1.8 29.4-2.2 8.7-4.1 15.9-11.3 20-20.1 3-6.2 3.2-7.5 3.2-17.2s-.2-11-3.1-17c-5.2-11.1-12.4-17.6-23.7-21.9-7.5-2.7-19.9-2.8-27.4-.2zm-448.4 2.9c-4.3 2.2-5.9 3.8-8.2 8.2-2.5 4.7-2.8 6.3-2.3 10.9.6 6.9 4.5 12.6 10.5 15.8 12.4 6.5 27.3-1.7 28.7-15.8.5-4.6.2-6.2-2.3-10.9-2.3-4.4-3.9-6-8.2-8.2-3.1-1.6-6.9-2.8-9.1-2.8-2.2 0-6 1.2-9.1 2.8zm727.1-1.9c-11.2 3.6-17.4 11.8-17.4 23.2 0 5.4.5 7.4 2.8 11.3 11.1 19 38.9 14.7 43.7-6.8 2.2-9.8-3.3-21.1-12.3-25.7-4.5-2.3-12.9-3.3-16.8-2zm-494 15c-4.9 1.5-8.9 4.1-12.2 8.1-7.7 8.9-7.7 21.1 0 30 11.1 13.1 31.1 10.9 38.7-4.3 6.6-13.3-.1-29.1-14.3-33.3-4.9-1.5-8.3-1.6-12.2-.5zm300.2 4.2c-10.3 5.1-14.9 18.3-10.1 28.9 4.1 9 10.7 13.3 20.4 13.3 19.2 0 29.5-21.9 17.4-36.7-6.2-7.4-18.7-9.9-27.7-5.5zm308.2 14.3c-4.1 1.8-10.2 9.2-11 13.3-2.3 12.4 5.3 23.4 17.5 25 5 .7 10.4-1.1 14.8-5 14.2-12.5 5.9-34.8-12.9-34.7-2.9.1-6.7.7-8.4 1.4zm198 7.4c-6 2.1-9.7 4.9-13.4 10-3.7 5.1-5 9.4-5 16.7 0 10.7 6.4 20.1 16.8 24.7 5.6 2.5 16.8 2.2 22.6-.7 17-8.2 20.5-30.6 7-44.2-7.8-7.9-17.4-10.1-28-6.5zM47.8 365.9c-7.7 4.9-10.8 14.4-7.3 22.8 2 4.8 4.1 7.1 8.7 9.4 12.4 6.3 27.1-2.7 27.1-16.6 0-14.8-15.9-23.6-28.5-15.6zm260.5-1.5c-10.9 3.5-21.5 13.3-25.4 23.4-3.3 8.6-3.6 19.1-.9 27.1 11.7 34.6 57.6 37.9 73.7 5.3 3.6-7.2 3.8-8.1 3.8-17.1-.1-7.6-.5-10.8-2.4-15.4-3.2-8-11.5-16.8-19.8-20.9-5.7-2.8-7.8-3.3-15.7-3.5-5.7-.2-10.7.2-13.3 1.1zm511.2 1.1c-.5.2-2.2.6-3.7.9-3.9.9-9.8 6.4-11.9 11.1-5.9 12.8 3.6 27.4 17.9 27.5 17.8.1 26.6-20.5 14.4-33.3-1.5-1.6-3.8-3.5-5.2-4.2-2.7-1.3-9.8-2.6-11.5-2zm-299 8.4c-8.4 3.9-13.5 12-13.5 21.6 0 13.5 9.4 22.9 23 22.9 25.2 0 32.4-34 9.5-44.5-5.2-2.4-13.8-2.4-19 0zm-385.4 11.8c-13.2 6.9-8.9 26.3 5.8 26.3 8.2 0 14.1-5.6 14.1-13.5 0-10.3-11.1-17.5-19.9-12.8zm823 20.8C949.2 409.3 943 418 943 428c0 13.1 9.1 22 22.5 22 8.5 0 15.9-4.6 19.8-12.5 5.9-12.1-.6-27.1-13.4-30.9-6.3-1.9-8-1.9-13.8-.1zm-732.6 9.6c-1.7.4-4.6 2.4-6.4 4.3-2.8 2.9-3.5 4.5-3.9 8.8-.3 4.4 0 5.9 2 8.7 3.6 5.3 7.1 7.4 12.1 7.4 8.9 0 15.2-6.1 15.2-14.8 0-3.9-.6-6.1-2.1-8.2-4-5.3-11.2-7.9-16.9-6.2zm1018.9 8.8c-6.4 3-9.7 8.1-10.2 15.7-.4 5.4-.1 7 2.1 10.6 6.1 10.5 21.4 12.4 29.3 3.6 5.7-6.2 6.9-14.1 3.3-21.6-4.3-8.7-15.5-12.6-24.5-8.3zm-94.9 22.9c-18 6.4-29.1 25.2-25.6 43.3 4.2 21.2 22.6 34.5 43.8 31.8 12.2-1.6 24-10.3 29.6-21.8 2.9-6 3.1-7.4 3.1-16.1 0-7.5-.4-10.7-2.2-15-3.2-8.1-10.8-16.2-19-20.2-5.8-2.9-7.8-3.3-15.7-3.6-6.6-.2-10.3.2-14 1.6zM112 449.5c-11.3 3.2-21.9 13-25.7 23.7-1.1 3.5-1.8 8.1-1.8 13.3 0 6.9.5 8.9 3.2 14.7 7.4 15.7 22.4 23.9 39.8 21.6 11.6-1.6 22.1-9.2 27.9-20.3 2.9-5.6 3.1-6.7 3.1-16.5 0-9.5-.3-11.1-2.8-16.2-7.9-16.2-26.9-24.9-43.7-20.3zm418.2 5.3c-7.4 2.7-12.2 6.9-15.9 14.1-5.4 10.3-4.4 21.4 2.6 30.7 16.7 21.9 51.5 9.8 51.4-17.8-.1-19.6-19.7-33.5-38.1-27zm92.1 3.1c-13.7 5-22.7 15.8-25.4 30.5-4.7 25.5 18.8 49.2 44.3 44.6 9-1.7 14.5-4.6 21.4-11.5 7.1-7 10.3-14.2 11.2-24.7 1.2-16.8-9.7-33.1-26.2-38.9-7.2-2.5-18.3-2.5-25.3 0zm417.7-.3c-10.8 4.6-17 17.7-13.7 28.5 5.2 16.8 26.5 22.9 39.1 11.1 12-11.3 9-31.9-5.8-38.8-6-2.8-14.2-3.1-19.6-.8zm-586.5 25c-4.7 2.4-7.3 5.3-9.1 10-3.5 9.1.5 19.2 9.1 23.4 9.1 4.4 19.6 1.1 24.8-7.8 2.1-3.6 2.5-12.8.6-16.4-1.7-3.3-6-7.8-9.1-9.4-3.6-1.9-12.6-1.8-16.3.2zm449.4.7c-12.1 5.1-19 11.5-24.2 22.5-3 6.3-3.2 7.4-3.2 17.7 0 10.4.2 11.4 3.3 17.7 5.7 11.7 15.7 20.1 27.7 23.2 32.4 8.5 61.4-21.7 51.5-53.6-3.7-12-11.3-20.7-22.9-26.1-5.8-2.8-7.9-3.2-16.6-3.5-8.7-.2-10.7 0-15.6 2.1zM733 487.6c-17.9 3.8-35.7 17.8-43.8 34.4-6.1 12.4-7.5 19.1-7 33 .7 18.4 6.3 31.3 18.9 43.9 12.8 12.8 28 19.3 45.9 19.5 11.6.1 18.3-1.2 27.8-5.5 18.4-8.2 31.8-23.8 37.1-42.9 2.6-9.1 2.8-24.7.6-33.5-5.9-23.4-25-42.6-48.1-48.5-9.1-2.3-21.8-2.5-31.4-.4zm-382.7 9.8c-22.7 7.4-32.2 35.5-18.7 55.3 7 10.2 17.2 15.6 30 15.7 7.5 0 8.8-.3 15.7-3.7 8.5-4.2 13.2-9 17.5-17.7 2.4-4.8 2.7-6.6 2.7-15-.1-8.2-.4-10.2-2.8-15-3.4-7.1-10.6-14.3-17.7-17.8-4.5-2.2-7.1-2.7-14-2.9-5.1-.2-10.2.3-12.7 1.1zM226 548.1c-8 3.6-12.5 9.6-13.6 18.3-1.7 12.3 9.2 24.6 21.7 24.6 9.4 0 17.1-4.6 20.8-12.5 8.7-18.6-10.4-38.8-28.9-30.4zm930.5 4.2c-5.6 2.2-8.4 4.9-11.1 10.3-3.1 6.3-3 11.7.3 18.1 4.6 8.8 17.2 13 25.9 8.5 7.9-4.1 11.4-9.7 11.4-18.3 0-13.8-13.9-23.5-26.5-18.6zm-99.5 4.6c-9.2 3-16.3 9-20.7 17.4-2.4 4.5-2.8 6.3-2.8 14.2 0 7.5.4 9.8 2.5 14 9.9 20.3 36.7 24.9 52.6 9.1 15.4-15.5 11.7-40.9-7.5-51.4-5.5-3-7.5-3.6-14-3.8-4.2-.2-8.7 0-10.1.5zm159.9 1.4c-2.4 1.3-5.7 4.3-7.4 6.6-2.6 3.7-3 5.1-3 11.1s.4 7.4 3 11.1c11.4 16.2 36.5 8.6 36.5-11.1 0-15.1-15.8-24.7-29.1-17.7zM55.5 563.5c-.5.2-2.2.6-3.7.9-4.1.9-9.5 6.1-11.4 11.1-5.9 15.6 9.6 30.4 24.8 23.7 13.7-6 15-25.7 2.1-32.9-3.7-2.1-9.8-3.6-11.8-2.8zm466 39.4c-14 6.4-17.3 24.3-6.2 34.7 8.4 8 20 8.5 28.4 1.1 4.7-4.1 7.3-9.9 7.3-16.2 0-15.4-15.8-25.9-29.5-19.6zm71.8 4.6c-20.8 5.6-33.1 25.1-28.8 45.6 2.5 12.3 9.9 21.7 21.5 27.3 5.9 2.8 7.4 3.1 16.5 3.1 9.3 0 10.5-.2 16.6-3.2 8-3.9 15-11.1 18.7-19.1 2.4-5 2.7-6.9 2.7-15.7 0-9.1-.3-10.6-3.1-16.5-5.4-11.5-15.9-19.7-28.3-22-6.9-1.3-9.4-1.2-15.8.5zm-437.8 13.8c-17.1 8.3-21.2 30.9-8 44.2 7.6 7.6 19.6 10.1 29.7 6.2 5.8-2.3 13.9-10.8 15.6-16.4 3.9-13.1-1.1-26.3-12.5-33-6.7-3.9-17.8-4.4-24.8-1zm706.3 5.6c-19.6 6.3-19.5 33.6.1 38.7 22.2 5.7 35.1-25.3 15.2-36.4-4.4-2.5-11.3-3.5-15.3-2.3zm78.7 8.5c-7 3-11.5 11.5-10.1 18.8 3.2 16.8 24.9 19.8 32.7 4.5 7.2-14-8-29.7-22.6-23.3zm-515.2 6.1c-9.4 4.7-14.3 12.8-14.3 23.5 0 15.2 10.8 26 25.9 26 10.6-.1 19-5.3 23.7-14.6 2.6-5.4 2.6-17.4 0-22.8-4.5-9-12.3-13.8-23.1-14.4-6-.3-7.7 0-12.2 2.3zm-113.8 8.8c-11.4 3.8-20 11.3-24.9 21.7-2.9 6-3.1 7.3-3.1 17 0 9.8.2 10.9 3.2 17 1.7 3.6 4.3 7.7 5.6 9.2 14.8 16.1 38.8 18.2 55.7 4.8 10.2-8.1 16.3-23.9 14.2-36.8-2.3-13.6-10.6-24.7-22.9-30.5-5.6-2.6-8.2-3.2-15.3-3.4-5.2-.2-10.1.2-12.5 1zm386.2 22.2c-7.3 2.5-10.9 7.8-10.9 15.7.1 9 7.2 15.8 16.4 15.8 8.3 0 15.8-7.5 15.8-15.7 0-11.5-10.8-19.6-21.3-15.8zm550.8 3.9c-5.9 2.7-7.7 4.6-10.4 10.6-3.6 8-2.2 15.7 4.1 22.6 8.5 9.2 20.9 9.4 29.8.4 10.6-10.5 8-26.8-5.3-33.5-6.4-3.1-11.7-3.2-18.2-.1zm-1138.7 4.5c-3.1 1-7.2 2.8-9.1 4-5.4 3.3-12.6 11.6-15.5 17.9-2.4 5.1-2.7 6.9-2.7 16.7 0 10.1.2 11.5 2.9 17 12.7 25.7 46.4 30.6 65.9 9.5 7.7-8.3 10.1-14.7 10.2-27 0-8.6-.3-10.1-3.1-16-4.5-9.4-10.2-15.3-18.9-19.6-9.3-4.6-20.5-5.6-29.7-2.5zM1166.6 692c-20.8 3.6-36 24.7-32.6 45.3 5.3 32.6 44.4 45.4 67.6 22.3 9.1-9.2 12.9-20.8 11.2-34-2.9-21.9-24.2-37.3-46.2-33.6zm-256.1 3.4c-3.7 1.7-8 6.2-9.4 9.9-6.1 16 13 30.5 26.6 20.1 3.9-3 7.3-9.4 7.3-13.9 0-3.6-3-10.4-5.6-12.7-5-4.4-13.2-5.9-18.9-3.4zm-689.7 8.2c-8.9 4.8-7 18.9 2.9 22.3 8.3 2.9 15.8-2.8 15.8-12.1 0-4.5-.4-5.3-3.7-8.4-3.1-2.8-4.5-3.4-8-3.4-2.4.1-5.5.7-7 1.6zm579.6 5.5c-4.7 1.3-12.4 8.7-15 14.4-5.9 12.6-.4 27.9 12.2 34.1 10.3 5 21 3.6 29.2-3.9 8.2-7.7 11-17.7 7.7-27.7-4.5-13.6-19.6-21.1-34.1-16.9zM18.5 722c-7.7 1.7-11.9 6.7-12 14.6 0 6.4 2.3 9.9 8.6 13.2 10.5 5.5 21.8-2.8 20.7-15-.9-8.5-9.1-14.5-17.3-12.8zm528.3 3.4c-14.7 5.2-20.1 21.2-11.7 33.9 7.8 11.8 27.2 13 35.4 2.3 8.1-10.7 7.1-23.6-2.4-31.7-6.5-5.6-13.8-7.2-21.3-4.5zm502.7 3.5c-8.3 3.9-13.6 12.3-13.6 21.6 0 26.6 36.8 32.5 45.6 7.4 5.4-15.1-6.2-30.9-22.4-30.9-3.3 0-7.2.8-9.6 1.9zm-49 11.3c-11.2 4-16 17.2-10 27.4 10 17 35.9 8.7 34.3-11.1-.6-7-3.9-11.8-10.2-15-5.3-2.7-9.2-3-14.1-1.3zm-386 20.2c-11.6 2.8-21.7 11.1-27.2 22.4-2.5 5.1-2.8 6.7-2.8 16.2 0 9.7.2 11 3.1 17 3.9 8.3 11.1 15.5 19.4 19.4 6 2.9 7.3 3.1 17 3.1 9.3 0 11.2-.3 16.2-2.7 16.2-7.5 26.1-26.2 23-43-3-16.1-14.1-28.2-29.7-32.2-6.9-1.9-12.1-1.9-19-.2zm-321.3 4.2c-14.2 7.1-17.6 24.9-7 36.8 4.6 5.3 10.4 7.9 17.9 7.9 17.6.1 28.9-18.6 20.9-34.3-6.1-11.8-19.9-16.3-31.8-10.4zm-205.2.5c-1.4.6-3.7 2.2-5.2 3.6-7.6 7.2-1.9 20.3 8.8 20.3 8.5 0 14.6-9.2 11.4-17-2.3-5.5-9.8-9-15-6.9zm376.9.2c-6.1 1.7-10.4 4.9-13.4 10.1-9 15.3 1.7 34 19.4 33.9 12.6 0 22.1-9.6 22.1-22.3 0-14.9-13.8-25.6-28.1-21.7zM725.5 779c-27.3 9.1-35.3 43.8-14.8 64.3 15.3 15.3 38.9 15.2 54.3-.3 12.4-12.3 15.1-29 7.5-44.7-8.2-16.7-29.1-25.3-47-19.3zm90.4 20.3c-5.3 2.8-10.3 9.8-11.3 15.6-1.7 10.6 5.9 21.8 16.4 24.1 17.2 3.8 31.5-13.6 24.1-29.5-5.1-11.1-18.6-15.8-29.2-10.2zm-743.7 4.3c-11.2 3-21 11.3-26.5 22.3-3 6.2-3.2 7.2-3.2 17.6 0 10.4.2 11.4 3.2 17.6 4.4 8.9 11.1 15.4 20.3 19.8 7 3.4 8.2 3.6 17 3.6 8.9 0 10-.2 17-3.6 9.2-4.5 16-11.1 20.3-19.9 3-6.1 3.2-7.1 3.2-17.5s-.2-11.4-3.2-17.6c-9-18.2-28.9-27.5-48.1-22.3zM182 806c-3.9 1.3-6.8 3.3-10.2 6.8-19 20 1.5 51.5 27.7 42.5 6.8-2.3 13.7-9.3 16-16.2 4.7-14.2-3.3-29.3-17.8-33.6-6.5-1.9-9-1.9-15.7.5zm801.8-.6c-20.9 5.8-28.1 32.3-13 47.9 5.2 5.5 10.6 7.9 18.3 8.5 11.8.8 21.6-4.4 27.6-14.5 4-6.9 4.5-18.1 1.1-25.5-6-13.1-20.6-20.2-34-16.4zm178.2-.3c-11.5 2.3-22.1 10.7-27.4 21.9-2.8 5.9-3.1 7.4-3.1 16.5 0 9.3.2 10.5 3.2 16.6 3.9 8 11.1 15 19.1 18.7 5 2.4 6.9 2.7 15.7 2.7 9.1 0 10.6-.3 16.5-3.1 11.6-5.6 19-15 21.5-27.3 4.5-21.5-9.4-41.9-31.5-46.1-6-1.1-7.7-1.1-14 .1zM358.3 827c-4.1 2.5-5.3 4.8-5.3 10.5 0 4 .5 5.2 3.4 8.1 3 3 4 3.4 8.6 3.4s5.6-.4 8.6-3.4c2.8-2.8 3.4-4.2 3.4-7.5 0-10.6-9.9-16.5-18.7-11.1zm163.9 25c-5.7 3.5-7.7 11.1-4.5 17.7 2.2 4.7 6.6 7.3 12.5 7.3 3.9 0 5.4-.6 8.3-3.1 4.9-4.4 6.3-9.5 4.1-15.3-3.1-8.1-12.8-11.2-20.4-6.6zm-92.2 4.6c-8.6 3.7-14.2 12.4-14.2 21.9 0 17.7 18 28.9 34 20.9 17.1-8.5 17.1-33.3 0-41.8-6-3-14.2-3.4-19.8-1zm164.9 16.2c-15.3 8-18.4 27.6-6.4 39.7 15 15 40.3 5.7 42.2-15.5 1.8-19.5-18.6-33.2-35.8-24.2zm-303.4 16c-15.1 7.1-15.3 26.2-.4 34 11.7 6.1 26.1-3.1 26.1-16.8 0-13.3-14-22.7-25.7-17.2zm898 7.6c-6.5 2.9-10.5 9.4-10.5 17.1 0 10.9 7.6 18.5 18.5 18.5 7.7 0 14-4.1 17-11.3 2.7-6.4 1.3-15-3.3-20-4.7-5.2-15.1-7.2-21.7-4.3zM864.3 903c-4.9 1-11.5 4.2-16.4 8.1-11.6 9.2-16.4 27.6-10.8 42.4 3.1 8.4 13 18.3 21.4 21.4 7.3 2.7 18.8 3 25.5.6 17.5-6.2 28.4-24.4 25-41.8-4.2-21.6-23.5-34.8-44.7-30.7zm-114.8 10c-25.9 4.2-44 28.8-39.7 54.2 6.4 38 51.6 53.5 79.3 27.2 10.1-9.7 14.9-20.8 14.9-34.4 0-13.5-4.8-24.7-14.8-34.2-10.9-10.5-25.3-15.1-39.7-12.8zm243.9 5.4c-5.9 2.6-9.5 10-8 16.1.4 1.4 2.1 4.2 3.9 6.2 6.4 7 17.4 5.1 22-3.7 3-5.9 1-13.8-4.6-17.4-3.4-2.3-9.7-2.8-13.3-1.2zm-888.6 3.5c-3.1 1-7.2 2.8-9.1 4-5.4 3.3-12.6 11.6-15.5 17.9-2.4 5-2.7 6.9-2.7 16.2 0 9.9.2 11 3.3 17.2 4.1 8.4 12.8 16.7 20.9 19.9 4.6 1.9 7.8 2.3 15.3 2.4 8.6 0 10.1-.3 16.2-3.2 12.2-5.8 20.5-16.6 23-30.1 3.1-16.7-6.7-34.8-22.7-42.4-8.6-4-20.1-4.8-28.7-1.9zm246.7 4.5c-10.9 3.4-19.5 10.6-24.4 20.4-10.3 20.5-2.1 44.7 18.7 54.5 6.2 3 7.5 3.2 17.2 3.2 9.9 0 11-.2 17.2-3.3 7.6-3.7 15.3-11.4 18.7-18.6 10.5-22.5-1.2-49.1-24.8-56-6.5-1.9-17-2-22.6-.2zm206.9.6c-7.2 2.9-12.8 8-16.3 15.2-2.7 5.2-3.1 7.2-3.1 13.8 0 6.6.4 8.6 3 13.8 5.3 10.6 13.8 16.2 25.6 17 9.4.6 15.8-1.5 22.4-7.5 2.8-2.5 6.3-6.9 7.8-9.7 2.3-4.4 2.7-6.3 2.6-13.6 0-6.9-.4-9.4-2.3-13-3.2-6.1-8.6-11.7-14.6-14.8-6.9-3.5-17.9-4.1-25.1-1.2zm511.6 1c-11.4 2.2-19 11.6-19 23.5 0 7.4 2.4 12.9 7.5 17.4 5 4.3 9.3 6.1 15.1 6.1 14.1 0 24.4-9.9 24.4-23.3 0-6.9-2-12-6.3-16.5-5.8-6-14-8.8-21.7-7.2zm-848.3 14.1c-15.4 5.3-25.9 17.5-28.9 33.7-4 21.5 11.5 43.6 34 48.3 15.3 3.1 32.3-3.5 41.9-16.5 14.2-19.2 9.6-46.9-10.1-60.2-10.6-7.2-25.3-9.3-36.9-5.3zm260.7 3.9c-6 1.9-12.6 7.3-15.8 13-2.6 4.6-3 6.5-3 12.5s.4 7.9 3 12.5c5.2 9.3 15.7 14.8 25.8 13.6 13.9-1.6 24.9-15.2 23.3-28.8-.7-5.4-4.5-13.3-7.9-16.4-6.2-5.7-18-8.7-25.4-6.4zm456 20.9c-7.4 3.4-12.2 12.7-10.5 20.4 1.9 8.1 6.3 12.7 14.2 14.8 17.1 4.5 30.2-17.5 18.1-30.5-5.9-6.2-14.4-8.1-21.8-4.7zM658 972.7c-19.2 9.9-13.5 37.9 8.2 39.9 7.1.7 14.9-3.1 19.3-9.4 2.7-3.9 3-5.2 3-11.6 0-6.2-.4-7.8-2.8-11.4-3.9-6-9.3-9.3-16.4-9.9-5-.4-6.6-.1-11.3 2.4zm588.6 5.4c-2.7.4-6.9 2-9.4 3.6-16.1 9.9-17.9 31.6-3.7 44.1 11.3 9.9 26.4 9.4 37-1.2 19.3-19.2 3.2-50.5-23.9-46.5zM519 995.9c-5 1.6-8.7 4-12.3 8-10 11.1-6.3 29.6 7.5 36.7 4.9 2.5 13.1 2.9 18.4.9 19.4-7.4 21.7-32.6 3.9-43-4.7-2.8-13.1-4.1-17.5-2.6zm606.7.5c-8 2.9-13.4 8.3-16.3 16.3-1.8 5-1.7 10 .1 15.4 5.7 16.6 26.4 22.4 39.6 11 14.9-12.7 10-37.1-8.5-42.6-6-1.8-9.9-1.8-14.9-.1zM50 1001.2c-1.9.7-5.8 3.5-8.6 6.3-5.8 5.8-8 11.8-7.1 19 3.1 22.4 31.8 28.6 43.5 9.4 3.1-5.1 3.3-5.9 3-13.1-.3-6.6-.7-8.2-3.3-11.9-6.1-8.6-18-12.8-27.5-9.7zm258 4c-4.9 3.4-7.2 7.1-7.8 12.6-1.6 17.2 21.4 24.2 30.2 9.2 4.4-7.5 1.1-18.7-6.7-22.3-5-2.4-11.7-2.2-15.7.5zm525.7 21.2c-5 1.8-7.6 4.2-9.8 9.1-5.4 11.7 2.7 24.5 15.6 24.5 9.4 0 17.5-7.9 17.5-17.1 0-4.1-2.9-10.7-5.8-13.2-2.3-2.1-8.7-4.6-11.7-4.6-1.1 0-3.7.6-5.8 1.3zm111.8 3c-11.9 5.3-14.1 20.6-4.2 29.3 12.6 11 32.6-1.8 27.8-17.8-3.1-10.3-14.1-15.7-23.6-11.5zm-818.8 15.8c-4 2.3-7.7 8.6-7.7 12.9 0 1.4 1 4.5 2.3 6.9 7 13.7 27.7 8.5 27.7-7 0-11.5-12.3-18.6-22.3-12.8zm74.3 6.9c-7.7 3.2-14 12.3-14 20.3 0 13.2 9.6 23 22.5 23 17.6 0 28.1-18.5 19.1-33.9-4.1-6.9-9.4-9.9-18-10.2-3.9-.2-8.2.2-9.6.8zm178.5.3c-4 1.7-8.4 6.3-10.1 10.3-2 4.7-1.7 12.7.6 17.3 3 5.9 11.1 11 17.4 11 8 0 17.3-7 19.6-14.7 2.6-8.7-1.8-19.1-9.9-23.3-4.7-2.3-13-2.6-17.6-.6zm-352.2 23.3c-3.5.7-8.3 6.8-8.3 10.6 0 13 17.3 15.7 21.9 3.5 2.8-7.5-5.2-15.8-13.6-14.1zm1195.2 6.9c-9.7 5-13.9 15.7-9.9 25.2 5.6 13.5 21.5 16.9 31.9 6.8 7.8-7.5 8.5-17.4 1.8-26.4-4.9-6.6-16.6-9.4-23.8-5.6zm-469 2.4c-20.3 6.7-31.3 28.9-24.4 49.3 4.7 14 15.3 23.1 30.3 25.8 20.7 3.9 40.9-10.7 44.6-32.3 2.9-16.5-6.7-34.2-22.6-41.5-7.8-3.5-19.5-4.1-27.9-1.3zm298 2.9c-4.6 2.1-10.1 7.9-12.2 13-2.4 5.8-1.3 16.3 2.4 21.4 4.7 6.8 10.2 10 17.7 10.5 8 .5 12.7-1 17.9-5.7 5.3-4.8 7.9-10.7 7.8-18.1 0-9.3-5.7-17.9-14.3-21.4-5-2.1-14.3-2-19.3.3zm-800.6 2.4c-9.6 5.1-11.6 17.3-4 24.8 6.8 6.9 16.1 7.1 22.7.5 6.3-6.3 6.5-15.5.5-22-5.4-5.9-12.1-7-19.2-3.3zm295.9-.9c-5.2 1.9-8.3 4-11.1 7.8-8.1 11-5.3 25.5 6.3 32.6 5.1 3.1 6 3.3 12.7 3 9.2-.4 14.5-3.7 18.6-11.7 5-9.9 3-20.3-5.2-27.3-6.3-5.4-14.1-7-21.3-4.4zM73.3 1098c-11.9 7.2-6.8 25.3 7.1 25.3 7.7 0 13.6-6 13.6-13.8 0-10.6-11.6-17.1-20.7-11.5zm793.7 6.3c-4.9 1.6-12.3 9.3-13.8 14.3-3.1 10.6.5 21.3 9.1 27.1 11 7.4 24.8 4.5 32.5-6.7 7.6-11.3 3.6-26.7-8.8-33.3-5.7-2.9-12.5-3.5-19-1.4zm-393.5 20.1c-12.5 3.1-22.9 11.6-28.7 23.4-3.1 6.3-3.3 7.3-3.3 17.7 0 10.3.2 11.4 3.2 17.7 4.4 9.3 10.9 16 20 20.5 20.8 10.3 46.1 1.7 56.3-19.2 8.3-16.7 5.2-35.4-7.9-48.6-10.8-10.8-25.4-15-39.6-11.5zm-124.2 5c-10.4 3.4-19.4 11.4-24.1 21.4-2.4 5-2.7 6.9-2.7 16.2 0 9.4.3 11.1 2.8 16.1 4.3 8.8 9.8 14.3 18.5 18.6 7.2 3.6 8.1 3.8 17.2 3.8 8.8 0 10.1-.3 16-3.3 11.1-5.5 17.7-13.2 21.1-24.4 5.5-18.1-3.3-38-20.6-46.3-5-2.4-7.5-2.9-15-3.2-5.7-.2-10.5.2-13.2 1.1zm579.8 19.8c-6.6 1.5-14.5 9.7-16 16.6-1.8 8.5 0 14.4 6.3 20.8 4.2 4.1 6.2 5.4 10.4 6.3 14.4 3.1 27.4-7.3 27.3-22 0-14.7-13.4-25.1-28-21.7zm-779.1 2.9c-6.2 2.6-10.2 8.9-10.2 15.9 0 11.3 11 20.2 21.2 17.1 8.2-2.4 13-8.7 13-17.1 0-9.8-6.1-16.2-15.8-16.7-3.2-.1-6.8.2-8.2.8zm485.4 5.4c-21.3 4.6-39.2 22.1-44.9 44-2 7.7-1.9 22 .1 29.9 5.2 20.4 22.7 37.8 43.4 43.1 8.9 2.3 26 1.6 34.7-1.5 23.7-8.3 40.2-31.7 40.3-57.1 0-8.4-3-20.3-7.2-28.2-4.2-8.1-16.4-20.3-24.5-24.5-12.5-6.6-28.2-8.7-41.9-5.7zm473.8 10.5c-11.7 4.2-20.7 13.6-24.4 25.4-8.4 27.4 15.4 54.6 43.4 49.6 28.7-5.2 42-38.3 24.8-61.8-9.5-12.8-28.8-18.6-43.8-13.2zm130 1c-17.1 4.1-20.8 27.2-5.7 36.5 10.6 6.6 24 2.1 28.9-9.7 4.4-10.5-1.7-23-12.8-26.3-5.4-1.6-5.6-1.6-10.4-.5zm-968.9 20c-16.4 3-31.2 13.1-39.8 27.5-10.5 17.5-10.7 40.6-.5 58.2l3 5.3h93.8l3.5-6.8c5.2-10 6.7-16.1 6.7-27.6 0-8.5-.5-11.4-2.9-18.3-7.8-22.4-27.1-37.1-50.6-38.7-4.4-.2-10.3-.1-13.2.4zm697.1 6.9c-9.6 4.4-14.9 13.5-14.2 24.5 1.3 21.4 26.7 31 41.9 15.8 4.6-4.6 7.9-12 7.9-17.7 0-4.3-3-12.1-6.2-15.9-6.5-7.9-20-11-29.4-6.7zm-908.2 6.5c-8.2 2.7-15.1 9.3-18.2 17.4-3.9 10.3-1.9 20.7 5.6 29.1 6 6.7 12 9.4 20.9 9.5 16.6.1 28.7-11.9 28.7-28.6 0-11.4-5.7-20.4-16.3-25.8-5.2-2.7-15.1-3.4-20.7-1.6zm79.4 1.8c-2.3.6-5.7 2.8-8.2 5.3-12.4 12.5-3.7 33.5 13.9 33.5 6 0 10.3-1.8 14.4-6.1 4-4.2 5.3-7.7 5.3-13.8 0-12.8-12.8-22.3-25.4-18.9zm638.9 3.2c-3.7 1.6-9.2 7.7-10.1 11.2-1.2 4.7.2 12.1 2.9 15.7 10.5 13.9 33.1 5 31.5-12.3-1.1-11.4-13.9-19.1-24.3-14.6zm275.4 23.9c-3.7 2.4-7.9 9.7-7.9 13.7s4.2 11.3 7.9 13.7c4.7 3.2 12.5 3.2 17.1.1 5.7-3.9 7.5-7.2 7.5-13.8 0-6.6-1.8-9.9-7.5-13.8-4.6-3.1-12.4-3.1-17.1.1zm-623.9 1.3c-10.5 2.8-18.6 9.8-23.2 20.1-1.7 3.7-2.2 6.7-2.2 13.3 0 4.7.5 9.7 1.2 11.3l1.2 2.7h64l1.2-2.7c.7-1.6 1.2-6.6 1.2-11.3 0-6.6-.5-9.6-2.2-13.3-4.7-10.5-12.7-17.3-23.7-20.2-7.2-1.8-10.3-1.8-17.5.1zm774.2 3.5c-12.6 6.4-16 23.4-7 34.4 8.8 10.6 25.8 10.6 34.6 0 5.8-7.1 6.7-16.1 2.5-24.6-4.1-8-9.4-11.3-18.6-11.7-5.8-.2-8 .1-11.5 1.9zm-306.8 1.5c-6.1 2.2-11.8 7.6-14.4 13.5-3.2 7.5-2.6 16.8 1.6 23.5l3 4.9 17.3.3c19.9.3 19.7.4 23.7-8.3 7.4-15.7-3.7-33.9-21.4-35.1-3.5-.2-7.3.2-9.8 1.2z" fill="#3c3c3c2b"/></svg>